G04 EAGLE Gerber RS-274X export*
G75*
%MOMM*%
%FSLAX34Y34*%
%LPD*%
%INTop Copper*%
%IPPOS*%
%AMOC8*
5,1,8,0,0,1.08239X$1,22.5*%
G01*
%ADD10P,1.732040X8X292.500000*%
%ADD11C,1.905000*%
%ADD12P,2.061953X8X292.500000*%
%ADD13R,3.000000X3.000000*%
%ADD14C,3.000000*%
%ADD15R,2.540000X2.540000*%
%ADD16C,2.540000*%
%ADD17C,3.810000*%
%ADD18P,2.089446X8X112.500000*%
%ADD19P,2.089446X8X22.500000*%
%ADD20C,2.000000*%
%ADD21R,3.516000X3.516000*%
%ADD22P,1.649562X8X22.500000*%
%ADD23R,1.778000X1.778000*%
%ADD24C,1.778000*%
%ADD25R,1.981200X0.558800*%
%ADD26R,1.600000X2.000000*%
%ADD27R,2.000000X1.500000*%
%ADD28C,2.032000*%
%ADD29C,1.016000*%
%ADD30C,0.756400*%
%ADD31C,0.508000*%
%ADD32C,1.270000*%

G36*
X890798Y10164D02*
X890798Y10164D01*
X890817Y10162D01*
X890919Y10184D01*
X891021Y10200D01*
X891038Y10210D01*
X891058Y10214D01*
X891147Y10267D01*
X891238Y10316D01*
X891252Y10330D01*
X891269Y10340D01*
X891336Y10419D01*
X891408Y10494D01*
X891416Y10512D01*
X891429Y10527D01*
X891468Y10623D01*
X891511Y10717D01*
X891513Y10737D01*
X891521Y10755D01*
X891539Y10922D01*
X891539Y700278D01*
X891536Y700298D01*
X891538Y700317D01*
X891516Y700419D01*
X891500Y700521D01*
X891490Y700538D01*
X891486Y700558D01*
X891433Y700647D01*
X891384Y700738D01*
X891370Y700752D01*
X891360Y700769D01*
X891281Y700836D01*
X891206Y700908D01*
X891188Y700916D01*
X891173Y700929D01*
X891077Y700968D01*
X890983Y701011D01*
X890963Y701013D01*
X890945Y701021D01*
X890778Y701039D01*
X10922Y701039D01*
X10902Y701036D01*
X10883Y701038D01*
X10781Y701016D01*
X10679Y701000D01*
X10662Y700990D01*
X10642Y700986D01*
X10553Y700933D01*
X10462Y700884D01*
X10448Y700870D01*
X10431Y700860D01*
X10364Y700781D01*
X10292Y700706D01*
X10284Y700688D01*
X10271Y700673D01*
X10232Y700577D01*
X10189Y700483D01*
X10187Y700463D01*
X10179Y700445D01*
X10161Y700278D01*
X10161Y10922D01*
X10164Y10902D01*
X10162Y10883D01*
X10184Y10781D01*
X10200Y10679D01*
X10210Y10662D01*
X10214Y10642D01*
X10267Y10553D01*
X10316Y10462D01*
X10330Y10448D01*
X10340Y10431D01*
X10419Y10364D01*
X10494Y10292D01*
X10512Y10284D01*
X10527Y10271D01*
X10623Y10232D01*
X10717Y10189D01*
X10737Y10187D01*
X10755Y10179D01*
X10922Y10161D01*
X890778Y10161D01*
X890798Y10164D01*
G37*
%LPC*%
G36*
X730813Y62229D02*
X730813Y62229D01*
X722629Y70413D01*
X722629Y71422D01*
X722618Y71493D01*
X722616Y71564D01*
X722598Y71613D01*
X722590Y71665D01*
X722556Y71728D01*
X722531Y71795D01*
X722499Y71836D01*
X722474Y71882D01*
X722422Y71932D01*
X722378Y71988D01*
X722334Y72016D01*
X722296Y72052D01*
X722231Y72082D01*
X722171Y72121D01*
X722120Y72133D01*
X722073Y72155D01*
X722002Y72163D01*
X721932Y72181D01*
X721880Y72177D01*
X721829Y72182D01*
X721758Y72167D01*
X721687Y72161D01*
X721639Y72141D01*
X721588Y72130D01*
X721527Y72093D01*
X721461Y72065D01*
X721405Y72020D01*
X721377Y72004D01*
X721362Y71986D01*
X721330Y71960D01*
X715409Y66039D01*
X712723Y66039D01*
X712723Y75438D01*
X712720Y75458D01*
X712722Y75477D01*
X712700Y75579D01*
X712683Y75681D01*
X712674Y75698D01*
X712670Y75718D01*
X712617Y75807D01*
X712568Y75898D01*
X712554Y75912D01*
X712544Y75929D01*
X712465Y75996D01*
X712390Y76067D01*
X712372Y76076D01*
X712357Y76089D01*
X712261Y76127D01*
X712167Y76171D01*
X712147Y76173D01*
X712129Y76181D01*
X711962Y76199D01*
X711199Y76199D01*
X711199Y76201D01*
X711962Y76201D01*
X711982Y76204D01*
X712001Y76202D01*
X712103Y76224D01*
X712205Y76241D01*
X712222Y76250D01*
X712242Y76254D01*
X712331Y76307D01*
X712422Y76356D01*
X712436Y76370D01*
X712453Y76380D01*
X712520Y76459D01*
X712591Y76534D01*
X712600Y76552D01*
X712613Y76567D01*
X712652Y76663D01*
X712695Y76757D01*
X712697Y76777D01*
X712705Y76795D01*
X712723Y76962D01*
X712723Y86361D01*
X715409Y86361D01*
X721330Y80440D01*
X721388Y80398D01*
X721440Y80348D01*
X721487Y80327D01*
X721529Y80296D01*
X721598Y80275D01*
X721663Y80245D01*
X721715Y80239D01*
X721765Y80224D01*
X721836Y80226D01*
X721907Y80218D01*
X721958Y80229D01*
X722010Y80230D01*
X722078Y80255D01*
X722148Y80270D01*
X722193Y80297D01*
X722241Y80315D01*
X722297Y80359D01*
X722359Y80396D01*
X722393Y80436D01*
X722433Y80468D01*
X722472Y80529D01*
X722519Y80583D01*
X722538Y80631D01*
X722566Y80675D01*
X722584Y80745D01*
X722611Y80811D01*
X722619Y80883D01*
X722627Y80914D01*
X722625Y80937D01*
X722629Y80978D01*
X722629Y81987D01*
X730813Y90171D01*
X742387Y90171D01*
X747244Y85314D01*
X747318Y85261D01*
X747387Y85201D01*
X747417Y85189D01*
X747444Y85170D01*
X747531Y85143D01*
X747615Y85109D01*
X747656Y85105D01*
X747679Y85098D01*
X747711Y85099D01*
X747782Y85091D01*
X750818Y85091D01*
X750908Y85105D01*
X750999Y85113D01*
X751029Y85125D01*
X751061Y85130D01*
X751141Y85173D01*
X751225Y85209D01*
X751257Y85235D01*
X751278Y85246D01*
X751300Y85269D01*
X751356Y85314D01*
X752124Y86082D01*
X752177Y86156D01*
X752237Y86225D01*
X752249Y86255D01*
X752268Y86282D01*
X752295Y86369D01*
X752329Y86453D01*
X752333Y86494D01*
X752340Y86517D01*
X752339Y86549D01*
X752347Y86620D01*
X752347Y148844D01*
X752344Y148864D01*
X752346Y148883D01*
X752324Y148985D01*
X752308Y149087D01*
X752298Y149104D01*
X752294Y149124D01*
X752241Y149213D01*
X752192Y149304D01*
X752178Y149318D01*
X752168Y149335D01*
X752089Y149402D01*
X752014Y149474D01*
X751996Y149482D01*
X751981Y149495D01*
X751885Y149534D01*
X751791Y149577D01*
X751771Y149579D01*
X751753Y149587D01*
X751586Y149605D01*
X750069Y149605D01*
X747735Y150572D01*
X745948Y152359D01*
X744981Y154693D01*
X744981Y162807D01*
X745810Y164809D01*
X745831Y164897D01*
X745859Y164984D01*
X745859Y165017D01*
X745866Y165048D01*
X745858Y165139D01*
X745857Y165230D01*
X745846Y165270D01*
X745843Y165293D01*
X745830Y165322D01*
X745810Y165391D01*
X744981Y167393D01*
X744981Y175507D01*
X745948Y177841D01*
X747735Y179628D01*
X748405Y179906D01*
X748484Y179955D01*
X748567Y179998D01*
X748588Y180019D01*
X748614Y180035D01*
X748674Y180107D01*
X748739Y180174D01*
X748752Y180201D01*
X748771Y180225D01*
X748804Y180312D01*
X748845Y180396D01*
X748848Y180426D01*
X748859Y180454D01*
X748863Y180548D01*
X748874Y180640D01*
X748869Y180678D01*
X748870Y180700D01*
X748860Y180731D01*
X748849Y180806D01*
X748791Y181022D01*
X748791Y182754D01*
X760603Y182754D01*
X760622Y182757D01*
X760642Y182755D01*
X760744Y182777D01*
X760846Y182793D01*
X760863Y182803D01*
X760883Y182807D01*
X760972Y182860D01*
X761063Y182909D01*
X761077Y182923D01*
X761094Y182933D01*
X761161Y183012D01*
X761232Y183087D01*
X761240Y183104D01*
X761267Y183055D01*
X761281Y183041D01*
X761291Y183024D01*
X761370Y182957D01*
X761445Y182885D01*
X761463Y182877D01*
X761478Y182864D01*
X761575Y182825D01*
X761668Y182782D01*
X761688Y182780D01*
X761706Y182772D01*
X761873Y182754D01*
X773685Y182754D01*
X773685Y181102D01*
X773688Y181082D01*
X773686Y181063D01*
X773708Y180961D01*
X773724Y180859D01*
X773734Y180842D01*
X773738Y180822D01*
X773791Y180733D01*
X773840Y180642D01*
X773854Y180628D01*
X773864Y180611D01*
X773943Y180544D01*
X774018Y180472D01*
X774036Y180464D01*
X774051Y180451D01*
X774147Y180412D01*
X774241Y180369D01*
X774261Y180367D01*
X774279Y180359D01*
X774446Y180341D01*
X784464Y180341D01*
X784579Y180360D01*
X784695Y180377D01*
X784701Y180379D01*
X784707Y180380D01*
X784809Y180435D01*
X784914Y180488D01*
X784919Y180493D01*
X784924Y180496D01*
X785004Y180580D01*
X785086Y180664D01*
X785090Y180670D01*
X785094Y180674D01*
X785101Y180691D01*
X785167Y180811D01*
X785986Y182787D01*
X787773Y184574D01*
X790107Y185541D01*
X812633Y185541D01*
X814034Y184960D01*
X814148Y184934D01*
X814261Y184905D01*
X814268Y184906D01*
X814274Y184904D01*
X814390Y184915D01*
X814507Y184924D01*
X814512Y184927D01*
X814519Y184927D01*
X814626Y184975D01*
X814733Y185021D01*
X814739Y185025D01*
X814743Y185027D01*
X814757Y185040D01*
X814864Y185125D01*
X850676Y220938D01*
X850729Y221012D01*
X850789Y221081D01*
X850801Y221111D01*
X850820Y221138D01*
X850847Y221225D01*
X850881Y221309D01*
X850885Y221350D01*
X850892Y221373D01*
X850891Y221405D01*
X850899Y221476D01*
X850899Y527824D01*
X850897Y527838D01*
X850898Y527850D01*
X850885Y527911D01*
X850885Y527914D01*
X850877Y528005D01*
X850865Y528035D01*
X850860Y528067D01*
X850817Y528147D01*
X850781Y528231D01*
X850755Y528263D01*
X850744Y528284D01*
X850721Y528306D01*
X850676Y528362D01*
X774742Y604296D01*
X774668Y604349D01*
X774599Y604409D01*
X774569Y604421D01*
X774542Y604440D01*
X774455Y604467D01*
X774371Y604501D01*
X774330Y604505D01*
X774307Y604512D01*
X774275Y604511D01*
X774204Y604519D01*
X450076Y604519D01*
X449986Y604505D01*
X449895Y604497D01*
X449865Y604485D01*
X449833Y604480D01*
X449753Y604437D01*
X449669Y604401D01*
X449637Y604375D01*
X449616Y604364D01*
X449594Y604341D01*
X449538Y604296D01*
X431374Y586133D01*
X426706Y584199D01*
X374664Y584199D01*
X374574Y584185D01*
X374483Y584177D01*
X374453Y584165D01*
X374422Y584160D01*
X374341Y584117D01*
X374257Y584081D01*
X374225Y584055D01*
X374204Y584044D01*
X374182Y584021D01*
X374126Y583976D01*
X374088Y583938D01*
X374076Y583922D01*
X374061Y583910D01*
X374005Y583822D01*
X373944Y583739D01*
X373939Y583720D01*
X373928Y583703D01*
X373902Y583602D01*
X373872Y583503D01*
X373873Y583484D01*
X373868Y583464D01*
X373876Y583361D01*
X373878Y583258D01*
X373885Y583239D01*
X373887Y583219D01*
X373927Y583124D01*
X373963Y583027D01*
X373975Y583011D01*
X373983Y582993D01*
X374057Y582901D01*
X374063Y582891D01*
X374069Y582886D01*
X374088Y582862D01*
X394116Y562834D01*
X394190Y562781D01*
X394259Y562721D01*
X394290Y562709D01*
X394316Y562690D01*
X394403Y562663D01*
X394488Y562629D01*
X394529Y562625D01*
X394551Y562618D01*
X394583Y562619D01*
X394654Y562611D01*
X419130Y562611D01*
X419220Y562625D01*
X419311Y562633D01*
X419341Y562645D01*
X419373Y562650D01*
X419453Y562693D01*
X419537Y562729D01*
X419569Y562755D01*
X419590Y562766D01*
X419612Y562789D01*
X419668Y562834D01*
X450725Y593890D01*
X454926Y595631D01*
X461258Y595631D01*
X461348Y595645D01*
X461439Y595653D01*
X461469Y595665D01*
X461501Y595670D01*
X461581Y595713D01*
X461665Y595749D01*
X461697Y595775D01*
X461718Y595786D01*
X461740Y595809D01*
X461796Y595854D01*
X464113Y598171D01*
X475687Y598171D01*
X483871Y589987D01*
X483871Y578413D01*
X475687Y570229D01*
X464113Y570229D01*
X462292Y572050D01*
X462276Y572062D01*
X462264Y572077D01*
X462176Y572133D01*
X462093Y572194D01*
X462074Y572200D01*
X462057Y572210D01*
X461956Y572236D01*
X461857Y572266D01*
X461837Y572266D01*
X461818Y572270D01*
X461715Y572262D01*
X461612Y572260D01*
X461593Y572253D01*
X461573Y572251D01*
X461478Y572211D01*
X461381Y572175D01*
X461365Y572163D01*
X461347Y572155D01*
X461216Y572050D01*
X453076Y563910D01*
X453034Y563852D01*
X452985Y563800D01*
X452963Y563753D01*
X452932Y563711D01*
X452911Y563642D01*
X452881Y563577D01*
X452875Y563525D01*
X452860Y563475D01*
X452862Y563404D01*
X452854Y563333D01*
X452865Y563282D01*
X452866Y563230D01*
X452891Y563162D01*
X452906Y563092D01*
X452933Y563048D01*
X452951Y562999D01*
X452996Y562943D01*
X453032Y562881D01*
X453072Y562847D01*
X453104Y562807D01*
X453165Y562768D01*
X453219Y562721D01*
X453267Y562702D01*
X453311Y562674D01*
X453381Y562656D01*
X453447Y562629D01*
X453519Y562621D01*
X453550Y562613D01*
X453573Y562615D01*
X453614Y562611D01*
X479534Y562611D01*
X485603Y560097D01*
X524776Y520924D01*
X524850Y520871D01*
X524919Y520811D01*
X524950Y520799D01*
X524976Y520780D01*
X525063Y520753D01*
X525148Y520719D01*
X525189Y520715D01*
X525211Y520708D01*
X525243Y520709D01*
X525314Y520701D01*
X530394Y520701D01*
X536854Y518970D01*
X542646Y515626D01*
X547376Y510896D01*
X550720Y505104D01*
X552451Y498644D01*
X552451Y491956D01*
X550720Y485496D01*
X547376Y479704D01*
X542646Y474974D01*
X536854Y471630D01*
X530394Y469899D01*
X525314Y469899D01*
X525224Y469885D01*
X525133Y469877D01*
X525104Y469865D01*
X525072Y469860D01*
X524991Y469817D01*
X524907Y469781D01*
X524875Y469755D01*
X524854Y469744D01*
X524832Y469721D01*
X524776Y469676D01*
X461234Y406134D01*
X461181Y406060D01*
X461121Y405991D01*
X461109Y405960D01*
X461090Y405934D01*
X461063Y405847D01*
X461029Y405762D01*
X461025Y405721D01*
X461018Y405699D01*
X461019Y405667D01*
X461011Y405596D01*
X461011Y365016D01*
X458497Y358947D01*
X440674Y341124D01*
X440621Y341050D01*
X440561Y340981D01*
X440549Y340950D01*
X440530Y340924D01*
X440503Y340837D01*
X440469Y340752D01*
X440465Y340711D01*
X440458Y340689D01*
X440459Y340657D01*
X440451Y340586D01*
X440451Y326637D01*
X439484Y324303D01*
X437697Y322516D01*
X435363Y321549D01*
X402837Y321549D01*
X400503Y322516D01*
X398716Y324303D01*
X397749Y326637D01*
X397749Y359163D01*
X398716Y361497D01*
X400503Y363284D01*
X402837Y364251D01*
X416786Y364251D01*
X416876Y364265D01*
X416967Y364273D01*
X416996Y364285D01*
X417028Y364290D01*
X417109Y364333D01*
X417193Y364369D01*
X417225Y364395D01*
X417246Y364406D01*
X417268Y364429D01*
X417324Y364474D01*
X427766Y374916D01*
X427819Y374990D01*
X427879Y375059D01*
X427891Y375090D01*
X427910Y375116D01*
X427937Y375203D01*
X427971Y375288D01*
X427975Y375329D01*
X427982Y375351D01*
X427981Y375383D01*
X427989Y375454D01*
X427989Y406908D01*
X427986Y406928D01*
X427988Y406947D01*
X427966Y407049D01*
X427950Y407151D01*
X427940Y407168D01*
X427936Y407188D01*
X427883Y407277D01*
X427834Y407368D01*
X427820Y407382D01*
X427810Y407399D01*
X427731Y407466D01*
X427656Y407538D01*
X427638Y407546D01*
X427623Y407559D01*
X427527Y407598D01*
X427433Y407641D01*
X427413Y407643D01*
X427395Y407651D01*
X427228Y407669D01*
X392336Y407669D01*
X392246Y407655D01*
X392155Y407647D01*
X392125Y407635D01*
X392094Y407630D01*
X392013Y407587D01*
X391929Y407551D01*
X391897Y407525D01*
X391876Y407514D01*
X391854Y407491D01*
X391798Y407446D01*
X387576Y403224D01*
X374424Y403224D01*
X370202Y407446D01*
X370128Y407499D01*
X370059Y407559D01*
X370028Y407571D01*
X370002Y407590D01*
X369915Y407617D01*
X369830Y407651D01*
X369790Y407655D01*
X369767Y407662D01*
X369735Y407661D01*
X369664Y407669D01*
X328000Y407669D01*
X327929Y407658D01*
X327857Y407656D01*
X327808Y407638D01*
X327757Y407630D01*
X327694Y407596D01*
X327626Y407571D01*
X327586Y407539D01*
X327540Y407514D01*
X327490Y407462D01*
X327434Y407418D01*
X327406Y407374D01*
X327370Y407336D01*
X327340Y407271D01*
X327301Y407211D01*
X327289Y407160D01*
X327267Y407113D01*
X327259Y407042D01*
X327241Y406972D01*
X327245Y406920D01*
X327240Y406869D01*
X327255Y406798D01*
X327260Y406727D01*
X327281Y406679D01*
X327292Y406628D01*
X327329Y406567D01*
X327357Y406501D01*
X327401Y406445D01*
X327418Y406417D01*
X327436Y406402D01*
X327462Y406370D01*
X333503Y400329D01*
X333503Y387071D01*
X324129Y377697D01*
X310871Y377697D01*
X301497Y387071D01*
X301497Y395203D01*
X301490Y395248D01*
X301492Y395294D01*
X301470Y395369D01*
X301458Y395445D01*
X301436Y395486D01*
X301423Y395530D01*
X301379Y395594D01*
X301342Y395663D01*
X301309Y395694D01*
X301283Y395732D01*
X301221Y395778D01*
X301164Y395832D01*
X301122Y395851D01*
X301086Y395879D01*
X301012Y395903D01*
X300941Y395936D01*
X300895Y395941D01*
X300852Y395955D01*
X300774Y395954D01*
X300697Y395963D01*
X300652Y395953D01*
X300606Y395953D01*
X300474Y395914D01*
X300456Y395910D01*
X300452Y395908D01*
X300445Y395906D01*
X298184Y394969D01*
X289838Y394969D01*
X289748Y394955D01*
X289657Y394947D01*
X289627Y394935D01*
X289595Y394930D01*
X289515Y394887D01*
X289431Y394851D01*
X289399Y394825D01*
X289378Y394814D01*
X289356Y394791D01*
X289300Y394746D01*
X288033Y393480D01*
X282432Y391159D01*
X280640Y391159D01*
X280550Y391145D01*
X280459Y391137D01*
X280429Y391125D01*
X280397Y391120D01*
X280317Y391077D01*
X280233Y391041D01*
X280201Y391015D01*
X280180Y391004D01*
X280158Y390981D01*
X280102Y390936D01*
X260475Y371310D01*
X256274Y369569D01*
X175600Y369569D01*
X175529Y369558D01*
X175457Y369556D01*
X175408Y369538D01*
X175357Y369530D01*
X175294Y369496D01*
X175226Y369471D01*
X175186Y369439D01*
X175140Y369414D01*
X175090Y369362D01*
X175034Y369318D01*
X175006Y369274D01*
X174970Y369236D01*
X174940Y369171D01*
X174901Y369111D01*
X174889Y369060D01*
X174867Y369013D01*
X174859Y368942D01*
X174841Y368872D01*
X174845Y368820D01*
X174840Y368769D01*
X174855Y368698D01*
X174860Y368627D01*
X174881Y368579D01*
X174892Y368528D01*
X174929Y368467D01*
X174957Y368401D01*
X175001Y368345D01*
X175018Y368317D01*
X175036Y368302D01*
X175062Y368270D01*
X181103Y362229D01*
X181103Y348971D01*
X171729Y339597D01*
X158471Y339597D01*
X154122Y343946D01*
X154048Y343999D01*
X153979Y344059D01*
X153949Y344071D01*
X153923Y344090D01*
X153836Y344117D01*
X153751Y344151D01*
X153710Y344155D01*
X153688Y344162D01*
X153655Y344161D01*
X153584Y344169D01*
X72142Y344169D01*
X72052Y344155D01*
X71961Y344147D01*
X71931Y344135D01*
X71899Y344130D01*
X71819Y344087D01*
X71735Y344051D01*
X71703Y344025D01*
X71682Y344014D01*
X71660Y343991D01*
X71604Y343946D01*
X69287Y341629D01*
X68278Y341629D01*
X68207Y341618D01*
X68136Y341616D01*
X68087Y341598D01*
X68035Y341590D01*
X67972Y341556D01*
X67905Y341531D01*
X67864Y341499D01*
X67818Y341474D01*
X67768Y341422D01*
X67712Y341378D01*
X67684Y341334D01*
X67648Y341296D01*
X67618Y341231D01*
X67579Y341171D01*
X67567Y341120D01*
X67545Y341073D01*
X67537Y341002D01*
X67519Y340932D01*
X67523Y340880D01*
X67518Y340829D01*
X67533Y340758D01*
X67539Y340687D01*
X67559Y340639D01*
X67570Y340588D01*
X67607Y340527D01*
X67635Y340461D01*
X67680Y340405D01*
X67696Y340377D01*
X67714Y340362D01*
X67740Y340330D01*
X73661Y334409D01*
X73661Y331723D01*
X64262Y331723D01*
X64242Y331720D01*
X64223Y331722D01*
X64121Y331700D01*
X64019Y331683D01*
X64002Y331674D01*
X63982Y331670D01*
X63893Y331617D01*
X63802Y331568D01*
X63788Y331554D01*
X63771Y331544D01*
X63704Y331465D01*
X63633Y331390D01*
X63624Y331372D01*
X63611Y331357D01*
X63573Y331261D01*
X63529Y331167D01*
X63527Y331147D01*
X63519Y331129D01*
X63501Y330962D01*
X63501Y330199D01*
X63499Y330199D01*
X63499Y330962D01*
X63496Y330982D01*
X63498Y331001D01*
X63476Y331103D01*
X63459Y331205D01*
X63450Y331222D01*
X63446Y331242D01*
X63393Y331331D01*
X63344Y331422D01*
X63330Y331436D01*
X63320Y331453D01*
X63241Y331520D01*
X63166Y331591D01*
X63148Y331600D01*
X63133Y331613D01*
X63037Y331652D01*
X62943Y331695D01*
X62923Y331697D01*
X62905Y331705D01*
X62738Y331723D01*
X53339Y331723D01*
X53339Y334409D01*
X59260Y340330D01*
X59302Y340388D01*
X59352Y340440D01*
X59373Y340487D01*
X59404Y340529D01*
X59425Y340598D01*
X59455Y340663D01*
X59461Y340715D01*
X59476Y340765D01*
X59474Y340836D01*
X59482Y340907D01*
X59471Y340958D01*
X59470Y341010D01*
X59445Y341078D01*
X59430Y341148D01*
X59403Y341193D01*
X59385Y341241D01*
X59341Y341297D01*
X59304Y341359D01*
X59264Y341393D01*
X59232Y341433D01*
X59171Y341472D01*
X59117Y341519D01*
X59069Y341538D01*
X59025Y341566D01*
X58955Y341584D01*
X58889Y341611D01*
X58817Y341619D01*
X58786Y341627D01*
X58763Y341625D01*
X58722Y341629D01*
X57713Y341629D01*
X49529Y349813D01*
X49529Y361387D01*
X57713Y369571D01*
X69287Y369571D01*
X71604Y367254D01*
X71678Y367201D01*
X71747Y367141D01*
X71777Y367129D01*
X71804Y367110D01*
X71891Y367083D01*
X71975Y367049D01*
X72016Y367045D01*
X72039Y367038D01*
X72071Y367039D01*
X72142Y367031D01*
X153584Y367031D01*
X153674Y367045D01*
X153765Y367053D01*
X153795Y367065D01*
X153827Y367070D01*
X153907Y367113D01*
X153991Y367149D01*
X154024Y367175D01*
X154044Y367186D01*
X154066Y367209D01*
X154122Y367254D01*
X155138Y368270D01*
X155180Y368328D01*
X155230Y368380D01*
X155252Y368427D01*
X155282Y368469D01*
X155303Y368538D01*
X155333Y368603D01*
X155339Y368655D01*
X155354Y368705D01*
X155353Y368776D01*
X155360Y368847D01*
X155349Y368898D01*
X155348Y368950D01*
X155323Y369018D01*
X155308Y369088D01*
X155281Y369133D01*
X155264Y369181D01*
X155219Y369237D01*
X155182Y369299D01*
X155142Y369333D01*
X155110Y369373D01*
X155050Y369412D01*
X154995Y369459D01*
X154947Y369478D01*
X154903Y369506D01*
X154833Y369524D01*
X154767Y369551D01*
X154696Y369559D01*
X154664Y369567D01*
X154641Y369565D01*
X154600Y369569D01*
X99326Y369569D01*
X95125Y371310D01*
X66608Y399826D01*
X66534Y399879D01*
X66465Y399939D01*
X66435Y399951D01*
X66408Y399970D01*
X66322Y399997D01*
X66237Y400031D01*
X66196Y400035D01*
X66173Y400042D01*
X66141Y400041D01*
X66070Y400049D01*
X59711Y400049D01*
X52709Y402950D01*
X47350Y408309D01*
X44449Y415311D01*
X44449Y422889D01*
X47350Y429891D01*
X52709Y435250D01*
X59711Y438151D01*
X67289Y438151D01*
X74291Y435250D01*
X79650Y429891D01*
X82551Y422889D01*
X82551Y416530D01*
X82565Y416440D01*
X82573Y416349D01*
X82585Y416319D01*
X82590Y416287D01*
X82633Y416207D01*
X82669Y416123D01*
X82695Y416091D01*
X82706Y416070D01*
X82729Y416048D01*
X82774Y415992D01*
X106112Y392654D01*
X106186Y392601D01*
X106255Y392541D01*
X106285Y392529D01*
X106312Y392510D01*
X106398Y392483D01*
X106483Y392449D01*
X106524Y392445D01*
X106547Y392438D01*
X106579Y392439D01*
X106650Y392431D01*
X193778Y392431D01*
X193849Y392442D01*
X193920Y392444D01*
X193969Y392462D01*
X194021Y392470D01*
X194084Y392504D01*
X194151Y392529D01*
X194192Y392561D01*
X194238Y392586D01*
X194287Y392638D01*
X194343Y392682D01*
X194371Y392726D01*
X194407Y392764D01*
X194438Y392829D01*
X194476Y392889D01*
X194489Y392940D01*
X194511Y392987D01*
X194519Y393058D01*
X194536Y393128D01*
X194532Y393180D01*
X194538Y393231D01*
X194523Y393302D01*
X194517Y393373D01*
X194497Y393421D01*
X194486Y393472D01*
X194449Y393533D01*
X194421Y393599D01*
X194376Y393655D01*
X194360Y393683D01*
X194342Y393698D01*
X194316Y393730D01*
X190280Y397767D01*
X187959Y403368D01*
X187959Y409432D01*
X190280Y415033D01*
X194567Y419320D01*
X197425Y420504D01*
X197461Y420526D01*
X197500Y420540D01*
X197564Y420591D01*
X197634Y420634D01*
X197661Y420666D01*
X197694Y420692D01*
X197739Y420760D01*
X197791Y420823D01*
X197806Y420863D01*
X197829Y420898D01*
X197850Y420977D01*
X197879Y421053D01*
X197881Y421095D01*
X197891Y421136D01*
X197886Y421217D01*
X197889Y421299D01*
X197878Y421339D01*
X197875Y421381D01*
X197844Y421456D01*
X197821Y421535D01*
X197797Y421569D01*
X197781Y421608D01*
X197727Y421670D01*
X197681Y421737D01*
X197647Y421762D01*
X197619Y421794D01*
X197490Y421879D01*
X197483Y421884D01*
X197481Y421884D01*
X197479Y421886D01*
X197209Y422024D01*
X195753Y423081D01*
X194481Y424353D01*
X193424Y425809D01*
X192607Y427412D01*
X192051Y429123D01*
X191868Y430277D01*
X202438Y430277D01*
X202458Y430280D01*
X202477Y430278D01*
X202579Y430300D01*
X202681Y430317D01*
X202698Y430326D01*
X202718Y430330D01*
X202807Y430383D01*
X202898Y430432D01*
X202912Y430446D01*
X202929Y430456D01*
X202996Y430535D01*
X203067Y430610D01*
X203076Y430628D01*
X203089Y430643D01*
X203127Y430739D01*
X203171Y430833D01*
X203173Y430853D01*
X203181Y430871D01*
X203199Y431038D01*
X203199Y432562D01*
X203196Y432582D01*
X203198Y432601D01*
X203176Y432703D01*
X203159Y432805D01*
X203150Y432822D01*
X203146Y432842D01*
X203093Y432931D01*
X203044Y433022D01*
X203030Y433036D01*
X203020Y433053D01*
X202941Y433120D01*
X202866Y433191D01*
X202848Y433200D01*
X202833Y433213D01*
X202737Y433252D01*
X202643Y433295D01*
X202623Y433297D01*
X202605Y433305D01*
X202438Y433323D01*
X191868Y433323D01*
X192051Y434477D01*
X192607Y436188D01*
X193424Y437791D01*
X194481Y439247D01*
X195753Y440519D01*
X197209Y441576D01*
X197479Y441714D01*
X197513Y441739D01*
X197551Y441756D01*
X197612Y441811D01*
X197677Y441860D01*
X197701Y441894D01*
X197732Y441922D01*
X197772Y441994D01*
X197819Y442061D01*
X197831Y442101D01*
X197851Y442138D01*
X197866Y442218D01*
X197889Y442297D01*
X197887Y442339D01*
X197895Y442380D01*
X197883Y442461D01*
X197880Y442542D01*
X197865Y442582D01*
X197859Y442623D01*
X197822Y442696D01*
X197793Y442773D01*
X197767Y442805D01*
X197747Y442843D01*
X197689Y442900D01*
X197637Y442963D01*
X197602Y442985D01*
X197572Y443015D01*
X197436Y443090D01*
X197429Y443094D01*
X197427Y443094D01*
X197425Y443096D01*
X194567Y444280D01*
X193300Y445546D01*
X193226Y445599D01*
X193157Y445659D01*
X193126Y445671D01*
X193100Y445690D01*
X193013Y445717D01*
X192928Y445751D01*
X192888Y445755D01*
X192865Y445762D01*
X192833Y445761D01*
X192762Y445769D01*
X176616Y445769D01*
X176526Y445755D01*
X176435Y445747D01*
X176405Y445735D01*
X176373Y445730D01*
X176292Y445687D01*
X176209Y445651D01*
X176176Y445625D01*
X176156Y445614D01*
X176134Y445591D01*
X176078Y445546D01*
X171729Y441197D01*
X158471Y441197D01*
X149097Y450571D01*
X149097Y463829D01*
X158471Y473203D01*
X171729Y473203D01*
X176078Y468854D01*
X176152Y468801D01*
X176221Y468741D01*
X176251Y468729D01*
X176277Y468710D01*
X176364Y468683D01*
X176449Y468649D01*
X176490Y468645D01*
X176512Y468638D01*
X176545Y468639D01*
X176616Y468631D01*
X188570Y468631D01*
X188641Y468642D01*
X188713Y468644D01*
X188762Y468662D01*
X188813Y468670D01*
X188876Y468704D01*
X188944Y468729D01*
X188984Y468761D01*
X189030Y468786D01*
X189080Y468837D01*
X189136Y468882D01*
X189164Y468926D01*
X189200Y468964D01*
X189230Y469029D01*
X189269Y469089D01*
X189281Y469140D01*
X189303Y469187D01*
X189311Y469258D01*
X189329Y469328D01*
X189325Y469380D01*
X189330Y469431D01*
X189315Y469502D01*
X189310Y469573D01*
X189289Y469621D01*
X189278Y469672D01*
X189241Y469733D01*
X189213Y469799D01*
X189168Y469855D01*
X189152Y469883D01*
X189134Y469898D01*
X189108Y469930D01*
X188926Y470113D01*
X187959Y472447D01*
X187959Y492753D01*
X188926Y495087D01*
X189108Y495270D01*
X189150Y495328D01*
X189200Y495380D01*
X189222Y495427D01*
X189252Y495469D01*
X189273Y495538D01*
X189303Y495603D01*
X189309Y495655D01*
X189324Y495705D01*
X189322Y495776D01*
X189330Y495847D01*
X189319Y495898D01*
X189318Y495950D01*
X189293Y496018D01*
X189278Y496088D01*
X189251Y496133D01*
X189234Y496181D01*
X189189Y496237D01*
X189152Y496299D01*
X189112Y496333D01*
X189080Y496373D01*
X189020Y496412D01*
X188965Y496459D01*
X188917Y496478D01*
X188873Y496506D01*
X188804Y496524D01*
X188737Y496551D01*
X188666Y496559D01*
X188634Y496567D01*
X188611Y496565D01*
X188570Y496569D01*
X106650Y496569D01*
X106560Y496555D01*
X106469Y496547D01*
X106439Y496535D01*
X106407Y496530D01*
X106327Y496487D01*
X106243Y496451D01*
X106211Y496425D01*
X106190Y496414D01*
X106168Y496391D01*
X106112Y496346D01*
X82774Y473008D01*
X82721Y472934D01*
X82661Y472865D01*
X82649Y472835D01*
X82630Y472808D01*
X82603Y472722D01*
X82569Y472637D01*
X82565Y472596D01*
X82558Y472573D01*
X82559Y472541D01*
X82551Y472470D01*
X82551Y455937D01*
X81584Y453603D01*
X79797Y451816D01*
X77463Y450849D01*
X49537Y450849D01*
X47203Y451816D01*
X45416Y453603D01*
X44449Y455937D01*
X44449Y483863D01*
X45416Y486197D01*
X47203Y487984D01*
X49537Y488951D01*
X66070Y488951D01*
X66160Y488965D01*
X66251Y488973D01*
X66281Y488985D01*
X66313Y488990D01*
X66393Y489033D01*
X66477Y489069D01*
X66509Y489095D01*
X66530Y489106D01*
X66552Y489129D01*
X66608Y489174D01*
X95125Y517690D01*
X99326Y519431D01*
X256274Y519431D01*
X260475Y517690D01*
X280102Y498064D01*
X280176Y498011D01*
X280245Y497951D01*
X280275Y497939D01*
X280302Y497920D01*
X280388Y497893D01*
X280473Y497859D01*
X280514Y497855D01*
X280537Y497848D01*
X280569Y497849D01*
X280640Y497841D01*
X282432Y497841D01*
X288033Y495520D01*
X289300Y494254D01*
X289374Y494201D01*
X289443Y494141D01*
X289473Y494129D01*
X289500Y494110D01*
X289587Y494083D01*
X289671Y494049D01*
X289712Y494045D01*
X289735Y494038D01*
X289767Y494039D01*
X289838Y494031D01*
X296914Y494031D01*
X300445Y492568D01*
X300489Y492558D01*
X300531Y492538D01*
X300608Y492530D01*
X300684Y492512D01*
X300730Y492516D01*
X300775Y492511D01*
X300852Y492528D01*
X300929Y492535D01*
X300971Y492554D01*
X301016Y492563D01*
X301083Y492603D01*
X301154Y492635D01*
X301188Y492666D01*
X301227Y492690D01*
X301278Y492749D01*
X301335Y492801D01*
X301357Y492842D01*
X301387Y492877D01*
X301416Y492949D01*
X301453Y493017D01*
X301462Y493062D01*
X301479Y493105D01*
X301494Y493241D01*
X301497Y493259D01*
X301496Y493264D01*
X301497Y493271D01*
X301497Y501929D01*
X310871Y511303D01*
X324129Y511303D01*
X333503Y501929D01*
X333503Y488671D01*
X327462Y482630D01*
X327420Y482572D01*
X327370Y482520D01*
X327348Y482473D01*
X327318Y482431D01*
X327297Y482362D01*
X327267Y482297D01*
X327261Y482245D01*
X327246Y482195D01*
X327247Y482124D01*
X327240Y482053D01*
X327251Y482002D01*
X327252Y481950D01*
X327277Y481882D01*
X327292Y481812D01*
X327319Y481767D01*
X327336Y481719D01*
X327381Y481663D01*
X327418Y481601D01*
X327458Y481567D01*
X327490Y481527D01*
X327550Y481488D01*
X327605Y481441D01*
X327653Y481422D01*
X327697Y481394D01*
X327767Y481376D01*
X327833Y481349D01*
X327904Y481341D01*
X327936Y481333D01*
X327959Y481335D01*
X328000Y481331D01*
X368808Y481331D01*
X368828Y481334D01*
X368847Y481332D01*
X368949Y481354D01*
X369051Y481370D01*
X369068Y481380D01*
X369088Y481384D01*
X369177Y481437D01*
X369268Y481486D01*
X369282Y481500D01*
X369299Y481510D01*
X369366Y481589D01*
X369438Y481664D01*
X369446Y481682D01*
X369459Y481697D01*
X369498Y481793D01*
X369541Y481887D01*
X369543Y481907D01*
X369551Y481925D01*
X369569Y482092D01*
X369569Y499358D01*
X369555Y499448D01*
X369547Y499539D01*
X369535Y499569D01*
X369530Y499601D01*
X369487Y499681D01*
X369451Y499765D01*
X369425Y499797D01*
X369414Y499818D01*
X369391Y499840D01*
X369346Y499896D01*
X367029Y502213D01*
X367029Y513787D01*
X375213Y521971D01*
X386787Y521971D01*
X394971Y513787D01*
X394971Y502213D01*
X392654Y499896D01*
X392601Y499822D01*
X392541Y499753D01*
X392529Y499723D01*
X392510Y499696D01*
X392483Y499609D01*
X392449Y499525D01*
X392445Y499484D01*
X392438Y499461D01*
X392439Y499429D01*
X392431Y499358D01*
X392431Y482092D01*
X392434Y482072D01*
X392432Y482053D01*
X392454Y481951D01*
X392470Y481849D01*
X392480Y481832D01*
X392484Y481812D01*
X392537Y481723D01*
X392586Y481632D01*
X392600Y481618D01*
X392610Y481601D01*
X392689Y481534D01*
X392764Y481462D01*
X392782Y481454D01*
X392797Y481441D01*
X392893Y481402D01*
X392987Y481359D01*
X393007Y481357D01*
X393025Y481349D01*
X393192Y481331D01*
X435319Y481331D01*
X435409Y481345D01*
X435500Y481353D01*
X435530Y481365D01*
X435562Y481370D01*
X435642Y481413D01*
X435726Y481449D01*
X435759Y481475D01*
X435779Y481486D01*
X435801Y481509D01*
X435857Y481554D01*
X438555Y484252D01*
X450445Y484252D01*
X458852Y475845D01*
X458852Y463955D01*
X450445Y455548D01*
X438555Y455548D01*
X435857Y458246D01*
X435783Y458299D01*
X435714Y458359D01*
X435684Y458371D01*
X435658Y458390D01*
X435571Y458417D01*
X435486Y458451D01*
X435445Y458455D01*
X435423Y458462D01*
X435390Y458461D01*
X435319Y458469D01*
X392336Y458469D01*
X392246Y458455D01*
X392155Y458447D01*
X392126Y458435D01*
X392094Y458430D01*
X392013Y458387D01*
X391929Y458351D01*
X391897Y458325D01*
X391876Y458314D01*
X391854Y458291D01*
X391798Y458246D01*
X389993Y456441D01*
X384158Y454024D01*
X377842Y454024D01*
X372007Y456441D01*
X370202Y458246D01*
X370128Y458299D01*
X370059Y458359D01*
X370029Y458371D01*
X370002Y458390D01*
X369915Y458417D01*
X369830Y458451D01*
X369790Y458455D01*
X369767Y458462D01*
X369735Y458461D01*
X369664Y458469D01*
X305066Y458469D01*
X300865Y460210D01*
X297542Y463532D01*
X290252Y470822D01*
X290236Y470834D01*
X290224Y470849D01*
X290137Y470905D01*
X290053Y470966D01*
X290034Y470972D01*
X290017Y470982D01*
X289917Y471008D01*
X289818Y471038D01*
X289798Y471038D01*
X289778Y471042D01*
X289675Y471034D01*
X289572Y471032D01*
X289553Y471025D01*
X289533Y471023D01*
X289438Y470983D01*
X289341Y470947D01*
X289325Y470935D01*
X289307Y470927D01*
X289176Y470822D01*
X288792Y470438D01*
X288780Y470422D01*
X288765Y470410D01*
X288709Y470323D01*
X288648Y470239D01*
X288643Y470219D01*
X288632Y470203D01*
X288606Y470102D01*
X288576Y470003D01*
X288577Y469984D01*
X288572Y469964D01*
X288580Y469861D01*
X288582Y469758D01*
X288589Y469739D01*
X288591Y469719D01*
X288631Y469624D01*
X288667Y469527D01*
X288679Y469511D01*
X288687Y469493D01*
X288792Y469362D01*
X292320Y465833D01*
X294641Y460232D01*
X294641Y454168D01*
X292320Y448567D01*
X288792Y445038D01*
X288780Y445022D01*
X288765Y445010D01*
X288709Y444922D01*
X288648Y444839D01*
X288643Y444820D01*
X288632Y444803D01*
X288606Y444702D01*
X288576Y444603D01*
X288577Y444584D01*
X288572Y444564D01*
X288580Y444461D01*
X288582Y444358D01*
X288589Y444339D01*
X288591Y444319D01*
X288631Y444224D01*
X288667Y444127D01*
X288679Y444111D01*
X288687Y444093D01*
X288792Y443962D01*
X292320Y440433D01*
X294641Y434832D01*
X294641Y428768D01*
X292320Y423167D01*
X288792Y419638D01*
X288780Y419622D01*
X288765Y419610D01*
X288709Y419522D01*
X288648Y419439D01*
X288643Y419420D01*
X288632Y419403D01*
X288606Y419302D01*
X288576Y419203D01*
X288577Y419184D01*
X288572Y419164D01*
X288580Y419061D01*
X288582Y418958D01*
X288589Y418939D01*
X288591Y418919D01*
X288631Y418824D01*
X288667Y418727D01*
X288679Y418711D01*
X288687Y418693D01*
X288792Y418562D01*
X289300Y418054D01*
X289374Y418001D01*
X289443Y417941D01*
X289473Y417929D01*
X289500Y417910D01*
X289587Y417883D01*
X289671Y417849D01*
X289712Y417845D01*
X289735Y417838D01*
X289767Y417839D01*
X289838Y417831D01*
X290860Y417831D01*
X290950Y417845D01*
X291041Y417853D01*
X291071Y417865D01*
X291103Y417870D01*
X291183Y417913D01*
X291267Y417949D01*
X291299Y417975D01*
X291320Y417986D01*
X291342Y418009D01*
X291398Y418054D01*
X302135Y428790D01*
X306336Y430531D01*
X369664Y430531D01*
X369754Y430545D01*
X369845Y430553D01*
X369875Y430565D01*
X369906Y430570D01*
X369987Y430613D01*
X370071Y430649D01*
X370103Y430675D01*
X370124Y430686D01*
X370146Y430709D01*
X370202Y430754D01*
X374424Y434976D01*
X387576Y434976D01*
X391798Y430754D01*
X391872Y430701D01*
X391941Y430641D01*
X391972Y430629D01*
X391998Y430610D01*
X392085Y430583D01*
X392170Y430549D01*
X392210Y430545D01*
X392233Y430538D01*
X392265Y430539D01*
X392336Y430531D01*
X432266Y430531D01*
X432356Y430545D01*
X432447Y430553D01*
X432476Y430565D01*
X432508Y430570D01*
X432589Y430613D01*
X432673Y430649D01*
X432705Y430675D01*
X432726Y430686D01*
X432748Y430709D01*
X432804Y430754D01*
X435147Y433097D01*
X441216Y435611D01*
X443696Y435611D01*
X443786Y435625D01*
X443877Y435633D01*
X443906Y435645D01*
X443938Y435650D01*
X444019Y435693D01*
X444103Y435729D01*
X444135Y435755D01*
X444156Y435766D01*
X444178Y435789D01*
X444234Y435834D01*
X501426Y493026D01*
X501470Y493086D01*
X501508Y493126D01*
X501514Y493141D01*
X501539Y493169D01*
X501551Y493200D01*
X501570Y493226D01*
X501597Y493313D01*
X501631Y493398D01*
X501635Y493439D01*
X501642Y493461D01*
X501641Y493493D01*
X501649Y493564D01*
X501649Y497036D01*
X501635Y497126D01*
X501627Y497217D01*
X501615Y497246D01*
X501610Y497278D01*
X501567Y497359D01*
X501531Y497443D01*
X501505Y497475D01*
X501494Y497496D01*
X501471Y497518D01*
X501426Y497574D01*
X469634Y529366D01*
X469560Y529419D01*
X469491Y529479D01*
X469460Y529491D01*
X469434Y529510D01*
X469347Y529537D01*
X469262Y529571D01*
X469221Y529575D01*
X469199Y529582D01*
X469167Y529581D01*
X469096Y529589D01*
X384216Y529589D01*
X378147Y532103D01*
X349703Y560547D01*
X347189Y566616D01*
X347189Y573184D01*
X349738Y579337D01*
X349746Y579370D01*
X349746Y579371D01*
X349746Y579372D01*
X349748Y579381D01*
X349768Y579423D01*
X349776Y579500D01*
X349794Y579576D01*
X349790Y579622D01*
X349795Y579667D01*
X349778Y579744D01*
X349771Y579821D01*
X349752Y579863D01*
X349742Y579908D01*
X349702Y579975D01*
X349671Y580046D01*
X349640Y580080D01*
X349616Y580119D01*
X349557Y580170D01*
X349504Y580227D01*
X349464Y580249D01*
X349429Y580279D01*
X349357Y580308D01*
X349289Y580345D01*
X349244Y580354D01*
X349201Y580371D01*
X349065Y580386D01*
X349047Y580389D01*
X349042Y580388D01*
X349034Y580389D01*
X81686Y580389D01*
X81596Y580375D01*
X81505Y580367D01*
X81475Y580355D01*
X81443Y580350D01*
X81362Y580307D01*
X81279Y580271D01*
X81246Y580245D01*
X81226Y580234D01*
X81204Y580211D01*
X81148Y580166D01*
X79797Y578816D01*
X77463Y577849D01*
X49537Y577849D01*
X47203Y578816D01*
X45416Y580603D01*
X44449Y582937D01*
X44449Y610863D01*
X45416Y613197D01*
X47203Y614984D01*
X49537Y615951D01*
X51308Y615951D01*
X51328Y615954D01*
X51347Y615952D01*
X51449Y615974D01*
X51551Y615990D01*
X51568Y616000D01*
X51588Y616004D01*
X51677Y616057D01*
X51768Y616106D01*
X51782Y616120D01*
X51799Y616130D01*
X51866Y616209D01*
X51938Y616284D01*
X51946Y616302D01*
X51959Y616317D01*
X51998Y616413D01*
X52041Y616507D01*
X52043Y616527D01*
X52051Y616545D01*
X52069Y616712D01*
X52069Y651758D01*
X52055Y651848D01*
X52047Y651939D01*
X52035Y651969D01*
X52030Y652001D01*
X51987Y652081D01*
X51951Y652165D01*
X51925Y652197D01*
X51914Y652218D01*
X51891Y652240D01*
X51846Y652296D01*
X49529Y654613D01*
X49529Y666187D01*
X57713Y674371D01*
X69287Y674371D01*
X77471Y666187D01*
X77471Y654613D01*
X75154Y652296D01*
X75101Y652222D01*
X75041Y652153D01*
X75029Y652123D01*
X75010Y652096D01*
X74983Y652009D01*
X74949Y651925D01*
X74945Y651884D01*
X74938Y651861D01*
X74939Y651829D01*
X74931Y651758D01*
X74931Y616712D01*
X74934Y616692D01*
X74932Y616673D01*
X74954Y616571D01*
X74970Y616469D01*
X74980Y616452D01*
X74984Y616432D01*
X75037Y616343D01*
X75086Y616252D01*
X75100Y616238D01*
X75110Y616221D01*
X75189Y616154D01*
X75264Y616082D01*
X75282Y616074D01*
X75297Y616061D01*
X75393Y616022D01*
X75487Y615979D01*
X75507Y615977D01*
X75525Y615969D01*
X75692Y615951D01*
X77463Y615951D01*
X79797Y614984D01*
X81148Y613634D01*
X81222Y613581D01*
X81291Y613521D01*
X81321Y613509D01*
X81347Y613490D01*
X81434Y613463D01*
X81519Y613429D01*
X81560Y613425D01*
X81582Y613418D01*
X81615Y613419D01*
X81686Y613411D01*
X349228Y613411D01*
X349299Y613422D01*
X349371Y613424D01*
X349420Y613442D01*
X349471Y613450D01*
X349534Y613484D01*
X349602Y613509D01*
X349642Y613541D01*
X349688Y613566D01*
X349738Y613618D01*
X349794Y613663D01*
X349822Y613706D01*
X349858Y613744D01*
X349888Y613809D01*
X349927Y613870D01*
X349939Y613920D01*
X349961Y613967D01*
X349969Y614038D01*
X349987Y614108D01*
X349983Y614160D01*
X349988Y614211D01*
X349973Y614282D01*
X349967Y614353D01*
X349947Y614401D01*
X349936Y614452D01*
X349899Y614513D01*
X349871Y614580D01*
X349854Y614601D01*
X347349Y620648D01*
X347349Y627152D01*
X349839Y633162D01*
X354438Y637761D01*
X360448Y640251D01*
X363570Y640251D01*
X363660Y640265D01*
X363751Y640273D01*
X363781Y640285D01*
X363813Y640290D01*
X363893Y640333D01*
X363977Y640369D01*
X364009Y640395D01*
X364030Y640406D01*
X364052Y640429D01*
X364108Y640474D01*
X377702Y654068D01*
X377703Y654068D01*
X381025Y657390D01*
X385226Y659131D01*
X407584Y659131D01*
X407674Y659145D01*
X407765Y659153D01*
X407795Y659165D01*
X407827Y659170D01*
X407908Y659213D01*
X407991Y659249D01*
X408024Y659275D01*
X408044Y659286D01*
X408066Y659309D01*
X408122Y659354D01*
X412471Y663703D01*
X425729Y663703D01*
X430078Y659354D01*
X430152Y659301D01*
X430221Y659241D01*
X430251Y659229D01*
X430277Y659210D01*
X430364Y659183D01*
X430449Y659149D01*
X430490Y659145D01*
X430512Y659138D01*
X430545Y659139D01*
X430616Y659131D01*
X461258Y659131D01*
X461348Y659145D01*
X461439Y659153D01*
X461469Y659165D01*
X461501Y659170D01*
X461581Y659213D01*
X461665Y659249D01*
X461697Y659275D01*
X461718Y659286D01*
X461740Y659309D01*
X461796Y659354D01*
X464113Y661671D01*
X475687Y661671D01*
X483871Y653487D01*
X483871Y641913D01*
X475687Y633729D01*
X464113Y633729D01*
X461796Y636046D01*
X461722Y636099D01*
X461653Y636159D01*
X461623Y636171D01*
X461596Y636190D01*
X461509Y636217D01*
X461425Y636251D01*
X461384Y636255D01*
X461361Y636262D01*
X461329Y636261D01*
X461258Y636269D01*
X430616Y636269D01*
X430526Y636255D01*
X430435Y636247D01*
X430405Y636235D01*
X430373Y636230D01*
X430292Y636187D01*
X430209Y636151D01*
X430176Y636125D01*
X430156Y636114D01*
X430134Y636091D01*
X430078Y636046D01*
X425729Y631697D01*
X412471Y631697D01*
X408122Y636046D01*
X408048Y636099D01*
X407979Y636159D01*
X407949Y636171D01*
X407923Y636190D01*
X407836Y636217D01*
X407751Y636251D01*
X407710Y636255D01*
X407688Y636262D01*
X407655Y636261D01*
X407584Y636269D01*
X392550Y636269D01*
X392460Y636255D01*
X392369Y636247D01*
X392339Y636235D01*
X392307Y636230D01*
X392227Y636187D01*
X392143Y636151D01*
X392111Y636125D01*
X392090Y636114D01*
X392068Y636091D01*
X392012Y636046D01*
X380274Y624308D01*
X380221Y624234D01*
X380161Y624165D01*
X380149Y624135D01*
X380130Y624108D01*
X380103Y624022D01*
X380069Y623937D01*
X380065Y623896D01*
X380058Y623873D01*
X380059Y623841D01*
X380051Y623770D01*
X380051Y620648D01*
X377561Y614638D01*
X373975Y611051D01*
X373963Y611035D01*
X373948Y611023D01*
X373892Y610936D01*
X373831Y610852D01*
X373825Y610833D01*
X373815Y610816D01*
X373789Y610715D01*
X373759Y610617D01*
X373759Y610597D01*
X373755Y610577D01*
X373763Y610474D01*
X373765Y610371D01*
X373772Y610352D01*
X373774Y610332D01*
X373814Y610237D01*
X373850Y610140D01*
X373862Y610124D01*
X373870Y610106D01*
X373975Y609975D01*
X374126Y609824D01*
X374200Y609771D01*
X374269Y609711D01*
X374300Y609699D01*
X374326Y609680D01*
X374413Y609653D01*
X374498Y609619D01*
X374538Y609615D01*
X374561Y609608D01*
X374593Y609609D01*
X374664Y609601D01*
X418604Y609601D01*
X418694Y609615D01*
X418785Y609623D01*
X418815Y609635D01*
X418847Y609640D01*
X418927Y609683D01*
X419011Y609719D01*
X419043Y609745D01*
X419064Y609756D01*
X419086Y609779D01*
X419142Y609824D01*
X437306Y627987D01*
X441974Y629921D01*
X782306Y629921D01*
X786974Y627987D01*
X874367Y540594D01*
X876301Y535926D01*
X876301Y213374D01*
X874367Y208706D01*
X826344Y160683D01*
X821676Y158749D01*
X816624Y158749D01*
X816184Y158931D01*
X816120Y158946D01*
X816060Y158971D01*
X815977Y158980D01*
X815945Y158987D01*
X815925Y158986D01*
X815893Y158989D01*
X815466Y158989D01*
X815376Y158975D01*
X815285Y158967D01*
X815255Y158955D01*
X815223Y158950D01*
X815142Y158907D01*
X815058Y158871D01*
X815026Y158845D01*
X815006Y158834D01*
X814986Y158814D01*
X812633Y157839D01*
X790107Y157839D01*
X787773Y158806D01*
X785986Y160593D01*
X785366Y162089D01*
X785304Y162189D01*
X785245Y162289D01*
X785240Y162293D01*
X785237Y162298D01*
X785147Y162373D01*
X785058Y162449D01*
X785052Y162451D01*
X785047Y162455D01*
X784939Y162497D01*
X784830Y162541D01*
X784822Y162542D01*
X784817Y162543D01*
X784799Y162544D01*
X784663Y162559D01*
X778256Y162559D01*
X778236Y162556D01*
X778217Y162558D01*
X778115Y162536D01*
X778013Y162520D01*
X777996Y162510D01*
X777976Y162506D01*
X777887Y162453D01*
X777796Y162404D01*
X777782Y162390D01*
X777765Y162380D01*
X777698Y162301D01*
X777626Y162226D01*
X777618Y162208D01*
X777605Y162193D01*
X777566Y162097D01*
X777523Y162003D01*
X777521Y161983D01*
X777513Y161965D01*
X777495Y161798D01*
X777495Y154693D01*
X776528Y152359D01*
X774741Y150572D01*
X772407Y149605D01*
X770890Y149605D01*
X770870Y149602D01*
X770851Y149604D01*
X770749Y149582D01*
X770647Y149566D01*
X770630Y149556D01*
X770610Y149552D01*
X770521Y149499D01*
X770430Y149450D01*
X770416Y149436D01*
X770399Y149426D01*
X770332Y149347D01*
X770260Y149272D01*
X770252Y149254D01*
X770239Y149239D01*
X770200Y149143D01*
X770157Y149049D01*
X770155Y149029D01*
X770147Y149011D01*
X770129Y148844D01*
X770129Y88144D01*
X770143Y88054D01*
X770151Y87963D01*
X770163Y87933D01*
X770168Y87901D01*
X770211Y87820D01*
X770247Y87737D01*
X770273Y87705D01*
X770284Y87684D01*
X770307Y87662D01*
X770352Y87606D01*
X775971Y81987D01*
X775971Y70413D01*
X767787Y62229D01*
X756213Y62229D01*
X751356Y67086D01*
X751282Y67139D01*
X751213Y67199D01*
X751183Y67211D01*
X751156Y67230D01*
X751069Y67257D01*
X750985Y67291D01*
X750944Y67295D01*
X750921Y67302D01*
X750889Y67301D01*
X750818Y67309D01*
X747782Y67309D01*
X747692Y67295D01*
X747601Y67287D01*
X747571Y67275D01*
X747539Y67270D01*
X747459Y67227D01*
X747375Y67191D01*
X747343Y67165D01*
X747322Y67154D01*
X747300Y67131D01*
X747244Y67086D01*
X742387Y62229D01*
X730813Y62229D01*
G37*
%LPD*%
%LPC*%
G36*
X603813Y62229D02*
X603813Y62229D01*
X595629Y70413D01*
X595629Y73690D01*
X595615Y73780D01*
X595607Y73871D01*
X595595Y73901D01*
X595590Y73933D01*
X595547Y74013D01*
X595511Y74097D01*
X595485Y74129D01*
X595474Y74150D01*
X595451Y74172D01*
X595406Y74228D01*
X587210Y82425D01*
X585469Y86626D01*
X585469Y115484D01*
X585455Y115574D01*
X585447Y115665D01*
X585435Y115695D01*
X585430Y115727D01*
X585387Y115808D01*
X585351Y115891D01*
X585325Y115924D01*
X585314Y115944D01*
X585291Y115966D01*
X585246Y116022D01*
X580897Y120371D01*
X580897Y133629D01*
X590271Y143003D01*
X603529Y143003D01*
X607878Y138654D01*
X607952Y138601D01*
X608021Y138541D01*
X608051Y138529D01*
X608077Y138510D01*
X608164Y138483D01*
X608249Y138449D01*
X608290Y138445D01*
X608312Y138438D01*
X608345Y138439D01*
X608416Y138431D01*
X623484Y138431D01*
X623574Y138445D01*
X623665Y138453D01*
X623695Y138465D01*
X623727Y138470D01*
X623808Y138513D01*
X623891Y138549D01*
X623924Y138575D01*
X623944Y138586D01*
X623966Y138609D01*
X624022Y138654D01*
X628371Y143003D01*
X641629Y143003D01*
X647670Y136962D01*
X647728Y136920D01*
X647780Y136870D01*
X647827Y136848D01*
X647869Y136818D01*
X647938Y136797D01*
X648003Y136767D01*
X648055Y136761D01*
X648105Y136746D01*
X648176Y136747D01*
X648247Y136740D01*
X648298Y136751D01*
X648350Y136752D01*
X648418Y136777D01*
X648488Y136792D01*
X648533Y136819D01*
X648581Y136836D01*
X648637Y136881D01*
X648699Y136918D01*
X648733Y136958D01*
X648773Y136990D01*
X648812Y137050D01*
X648859Y137105D01*
X648878Y137153D01*
X648906Y137197D01*
X648924Y137267D01*
X648951Y137333D01*
X648959Y137404D01*
X648967Y137436D01*
X648965Y137459D01*
X648969Y137500D01*
X648969Y198150D01*
X648955Y198240D01*
X648947Y198331D01*
X648935Y198361D01*
X648930Y198393D01*
X648887Y198473D01*
X648851Y198557D01*
X648825Y198589D01*
X648814Y198610D01*
X648791Y198632D01*
X648746Y198688D01*
X635568Y211866D01*
X635494Y211919D01*
X635425Y211979D01*
X635395Y211991D01*
X635368Y212010D01*
X635282Y212037D01*
X635197Y212071D01*
X635156Y212075D01*
X635133Y212082D01*
X635101Y212081D01*
X635030Y212089D01*
X443792Y212089D01*
X443772Y212086D01*
X443753Y212088D01*
X443651Y212066D01*
X443549Y212050D01*
X443532Y212040D01*
X443512Y212036D01*
X443423Y211983D01*
X443332Y211934D01*
X443318Y211920D01*
X443301Y211910D01*
X443234Y211831D01*
X443162Y211756D01*
X443154Y211738D01*
X443141Y211723D01*
X443102Y211627D01*
X443059Y211533D01*
X443057Y211513D01*
X443049Y211495D01*
X443031Y211328D01*
X443031Y209757D01*
X442064Y207423D01*
X440280Y205638D01*
X440268Y205622D01*
X440252Y205610D01*
X440196Y205522D01*
X440136Y205439D01*
X440130Y205420D01*
X440119Y205403D01*
X440094Y205302D01*
X440064Y205203D01*
X440064Y205184D01*
X440059Y205164D01*
X440067Y205061D01*
X440070Y204958D01*
X440077Y204939D01*
X440078Y204919D01*
X440119Y204824D01*
X440154Y204727D01*
X440167Y204711D01*
X440175Y204693D01*
X440280Y204562D01*
X442064Y202777D01*
X443031Y200443D01*
X443031Y162757D01*
X442064Y160423D01*
X440277Y158636D01*
X437943Y157669D01*
X436372Y157669D01*
X436352Y157666D01*
X436333Y157668D01*
X436231Y157646D01*
X436129Y157630D01*
X436112Y157620D01*
X436092Y157616D01*
X436003Y157563D01*
X435912Y157514D01*
X435898Y157500D01*
X435881Y157490D01*
X435814Y157411D01*
X435742Y157336D01*
X435734Y157318D01*
X435721Y157303D01*
X435682Y157207D01*
X435639Y157113D01*
X435637Y157093D01*
X435629Y157075D01*
X435611Y156908D01*
X435611Y98973D01*
X435621Y98908D01*
X435622Y98843D01*
X435645Y98763D01*
X435650Y98730D01*
X435660Y98713D01*
X435669Y98682D01*
X438151Y92689D01*
X438151Y85111D01*
X435250Y78109D01*
X429891Y72750D01*
X422889Y69849D01*
X415311Y69849D01*
X408309Y72750D01*
X402950Y78109D01*
X400049Y85111D01*
X400049Y92689D01*
X402531Y98682D01*
X402546Y98745D01*
X402571Y98806D01*
X402580Y98889D01*
X402587Y98921D01*
X402586Y98940D01*
X402589Y98973D01*
X402589Y156908D01*
X402586Y156928D01*
X402588Y156947D01*
X402566Y157049D01*
X402550Y157151D01*
X402540Y157168D01*
X402536Y157188D01*
X402483Y157277D01*
X402434Y157368D01*
X402420Y157382D01*
X402410Y157399D01*
X402331Y157466D01*
X402256Y157538D01*
X402238Y157546D01*
X402223Y157559D01*
X402127Y157598D01*
X402033Y157641D01*
X402013Y157643D01*
X401995Y157651D01*
X401828Y157669D01*
X400257Y157669D01*
X397923Y158636D01*
X396136Y160423D01*
X395169Y162757D01*
X395169Y200443D01*
X396136Y202777D01*
X397920Y204562D01*
X397932Y204578D01*
X397948Y204590D01*
X398004Y204678D01*
X398064Y204761D01*
X398070Y204780D01*
X398081Y204797D01*
X398106Y204898D01*
X398136Y204997D01*
X398136Y205016D01*
X398141Y205036D01*
X398133Y205139D01*
X398130Y205242D01*
X398123Y205261D01*
X398122Y205281D01*
X398081Y205376D01*
X398046Y205473D01*
X398033Y205489D01*
X398025Y205507D01*
X397920Y205638D01*
X396136Y207423D01*
X395169Y209757D01*
X395169Y211328D01*
X395166Y211348D01*
X395168Y211367D01*
X395146Y211469D01*
X395130Y211571D01*
X395120Y211588D01*
X395116Y211608D01*
X395063Y211697D01*
X395014Y211788D01*
X395000Y211802D01*
X394990Y211819D01*
X394911Y211886D01*
X394836Y211958D01*
X394818Y211966D01*
X394803Y211979D01*
X394707Y212018D01*
X394613Y212061D01*
X394593Y212063D01*
X394575Y212071D01*
X394408Y212089D01*
X351451Y212089D01*
X351361Y212075D01*
X351270Y212067D01*
X351240Y212055D01*
X351208Y212050D01*
X351127Y212007D01*
X351043Y211971D01*
X351011Y211945D01*
X350991Y211934D01*
X350968Y211911D01*
X350912Y211866D01*
X347320Y208274D01*
X341528Y204930D01*
X335068Y203199D01*
X328380Y203199D01*
X321920Y204930D01*
X316128Y208274D01*
X311398Y213004D01*
X308054Y218796D01*
X306323Y225256D01*
X306323Y231944D01*
X308054Y238404D01*
X311398Y244196D01*
X316128Y248926D01*
X321920Y252270D01*
X328380Y254001D01*
X335068Y254001D01*
X341528Y252270D01*
X347320Y248926D01*
X350912Y245334D01*
X350986Y245281D01*
X351056Y245221D01*
X351086Y245209D01*
X351112Y245190D01*
X351199Y245163D01*
X351284Y245129D01*
X351325Y245125D01*
X351347Y245118D01*
X351379Y245119D01*
X351451Y245111D01*
X394408Y245111D01*
X394428Y245114D01*
X394447Y245112D01*
X394549Y245134D01*
X394651Y245150D01*
X394668Y245160D01*
X394688Y245164D01*
X394777Y245217D01*
X394868Y245266D01*
X394882Y245280D01*
X394899Y245290D01*
X394966Y245369D01*
X395038Y245444D01*
X395046Y245462D01*
X395059Y245477D01*
X395098Y245573D01*
X395141Y245667D01*
X395143Y245687D01*
X395151Y245705D01*
X395169Y245872D01*
X395169Y247443D01*
X396136Y249777D01*
X397923Y251564D01*
X400257Y252531D01*
X437943Y252531D01*
X440277Y251564D01*
X442064Y249777D01*
X443031Y247443D01*
X443031Y245872D01*
X443034Y245852D01*
X443032Y245833D01*
X443054Y245731D01*
X443070Y245629D01*
X443080Y245612D01*
X443084Y245592D01*
X443137Y245503D01*
X443186Y245412D01*
X443200Y245398D01*
X443210Y245381D01*
X443289Y245314D01*
X443364Y245242D01*
X443382Y245234D01*
X443397Y245221D01*
X443493Y245182D01*
X443587Y245139D01*
X443607Y245137D01*
X443625Y245129D01*
X443792Y245111D01*
X714484Y245111D01*
X714731Y245009D01*
X714794Y244994D01*
X714855Y244969D01*
X714938Y244960D01*
X714970Y244953D01*
X714989Y244954D01*
X715022Y244951D01*
X731863Y244951D01*
X734197Y243984D01*
X736062Y242120D01*
X736078Y242108D01*
X736090Y242092D01*
X736178Y242036D01*
X736261Y241976D01*
X736280Y241970D01*
X736297Y241959D01*
X736398Y241934D01*
X736497Y241904D01*
X736516Y241904D01*
X736536Y241899D01*
X736639Y241907D01*
X736742Y241910D01*
X736761Y241917D01*
X736781Y241918D01*
X736876Y241959D01*
X736973Y241994D01*
X736989Y242007D01*
X737007Y242015D01*
X737138Y242120D01*
X739003Y243984D01*
X741337Y244951D01*
X754686Y244951D01*
X754776Y244965D01*
X754867Y244973D01*
X754896Y244985D01*
X754928Y244990D01*
X755009Y245033D01*
X755093Y245069D01*
X755125Y245095D01*
X755146Y245106D01*
X755168Y245129D01*
X755224Y245174D01*
X802416Y292366D01*
X802469Y292440D01*
X802529Y292509D01*
X802541Y292540D01*
X802560Y292566D01*
X802587Y292653D01*
X802621Y292738D01*
X802625Y292779D01*
X802632Y292801D01*
X802631Y292833D01*
X802639Y292904D01*
X802639Y475573D01*
X802625Y475663D01*
X802617Y475754D01*
X802605Y475784D01*
X802600Y475816D01*
X802557Y475897D01*
X802521Y475981D01*
X802495Y476013D01*
X802484Y476034D01*
X802461Y476056D01*
X802416Y476112D01*
X798824Y479704D01*
X795480Y485496D01*
X793749Y491956D01*
X793749Y498644D01*
X795480Y505104D01*
X798824Y510896D01*
X803554Y515626D01*
X809346Y518970D01*
X815806Y520701D01*
X822494Y520701D01*
X828954Y518970D01*
X834746Y515626D01*
X839476Y510896D01*
X842820Y505104D01*
X844551Y498644D01*
X844551Y491956D01*
X842820Y485496D01*
X839476Y479704D01*
X835884Y476112D01*
X835831Y476038D01*
X835771Y475968D01*
X835759Y475938D01*
X835740Y475912D01*
X835713Y475825D01*
X835679Y475740D01*
X835675Y475699D01*
X835668Y475677D01*
X835669Y475645D01*
X835661Y475573D01*
X835661Y282466D01*
X833147Y276397D01*
X771353Y214603D01*
X765284Y212089D01*
X758716Y212089D01*
X758469Y212191D01*
X758406Y212206D01*
X758345Y212231D01*
X758262Y212240D01*
X758230Y212247D01*
X758211Y212246D01*
X758178Y212249D01*
X755142Y212249D01*
X755122Y212246D01*
X755103Y212248D01*
X755001Y212226D01*
X754899Y212210D01*
X754882Y212200D01*
X754862Y212196D01*
X754773Y212143D01*
X754682Y212094D01*
X754668Y212080D01*
X754651Y212070D01*
X754584Y211991D01*
X754512Y211916D01*
X754504Y211898D01*
X754491Y211883D01*
X754452Y211787D01*
X754409Y211693D01*
X754407Y211673D01*
X754399Y211655D01*
X754381Y211488D01*
X754381Y207198D01*
X754395Y207108D01*
X754403Y207017D01*
X754415Y206987D01*
X754420Y206955D01*
X754463Y206875D01*
X754499Y206791D01*
X754525Y206758D01*
X754536Y206738D01*
X754559Y206716D01*
X754604Y206660D01*
X755046Y206218D01*
X755120Y206164D01*
X755189Y206105D01*
X755219Y206093D01*
X755245Y206074D01*
X755332Y206047D01*
X755417Y206013D01*
X755458Y206009D01*
X755480Y206002D01*
X755513Y206003D01*
X755584Y205995D01*
X772407Y205995D01*
X774741Y205028D01*
X776528Y203241D01*
X777495Y200907D01*
X777495Y192793D01*
X776528Y190459D01*
X774741Y188672D01*
X774071Y188394D01*
X773992Y188345D01*
X773909Y188302D01*
X773888Y188281D01*
X773862Y188265D01*
X773802Y188193D01*
X773737Y188126D01*
X773724Y188099D01*
X773705Y188075D01*
X773672Y187988D01*
X773631Y187904D01*
X773628Y187874D01*
X773617Y187846D01*
X773613Y187752D01*
X773602Y187660D01*
X773607Y187622D01*
X773606Y187600D01*
X773616Y187569D01*
X773627Y187494D01*
X773685Y187278D01*
X773685Y185546D01*
X761873Y185546D01*
X761854Y185543D01*
X761834Y185545D01*
X761732Y185523D01*
X761630Y185507D01*
X761613Y185497D01*
X761593Y185493D01*
X761504Y185440D01*
X761413Y185391D01*
X761399Y185377D01*
X761382Y185367D01*
X761315Y185288D01*
X761244Y185213D01*
X761236Y185195D01*
X761209Y185245D01*
X761195Y185259D01*
X761185Y185276D01*
X761106Y185343D01*
X761031Y185415D01*
X761013Y185423D01*
X760998Y185436D01*
X760901Y185475D01*
X760808Y185518D01*
X760788Y185520D01*
X760770Y185528D01*
X760603Y185546D01*
X748791Y185546D01*
X748791Y187278D01*
X748849Y187494D01*
X748858Y187587D01*
X748875Y187679D01*
X748870Y187709D01*
X748873Y187739D01*
X748853Y187830D01*
X748839Y187922D01*
X748825Y187949D01*
X748819Y187979D01*
X748770Y188058D01*
X748728Y188141D01*
X748706Y188163D01*
X748690Y188188D01*
X748619Y188248D01*
X748552Y188314D01*
X748519Y188332D01*
X748502Y188346D01*
X748471Y188358D01*
X748405Y188394D01*
X747735Y188672D01*
X747406Y189001D01*
X747353Y189039D01*
X747306Y189085D01*
X747233Y189125D01*
X747206Y189144D01*
X747188Y189150D01*
X747159Y189166D01*
X746804Y189313D01*
X737953Y198164D01*
X737303Y199732D01*
X737265Y199793D01*
X737236Y199858D01*
X737201Y199897D01*
X737174Y199941D01*
X737118Y199987D01*
X737070Y200039D01*
X737024Y200065D01*
X736984Y200098D01*
X736917Y200123D01*
X736854Y200158D01*
X736803Y200167D01*
X736755Y200186D01*
X736683Y200189D01*
X736612Y200202D01*
X736561Y200194D01*
X736509Y200196D01*
X736440Y200176D01*
X736369Y200166D01*
X736323Y200142D01*
X736273Y200128D01*
X736214Y200087D01*
X736150Y200054D01*
X736113Y200017D01*
X736071Y199988D01*
X736028Y199930D01*
X735978Y199879D01*
X735943Y199816D01*
X735924Y199790D01*
X735917Y199768D01*
X735897Y199732D01*
X735247Y198164D01*
X726396Y189313D01*
X726041Y189166D01*
X725985Y189131D01*
X725925Y189105D01*
X725860Y189053D01*
X725832Y189036D01*
X725819Y189021D01*
X725794Y189001D01*
X725465Y188672D01*
X724795Y188394D01*
X724716Y188345D01*
X724633Y188302D01*
X724612Y188281D01*
X724586Y188265D01*
X724526Y188193D01*
X724461Y188126D01*
X724448Y188099D01*
X724429Y188075D01*
X724396Y187988D01*
X724355Y187904D01*
X724352Y187874D01*
X724341Y187846D01*
X724337Y187752D01*
X724326Y187660D01*
X724331Y187622D01*
X724330Y187600D01*
X724340Y187569D01*
X724351Y187494D01*
X724409Y187278D01*
X724409Y185546D01*
X712597Y185546D01*
X712578Y185543D01*
X712558Y185545D01*
X712456Y185523D01*
X712354Y185507D01*
X712337Y185497D01*
X712317Y185493D01*
X712228Y185440D01*
X712137Y185391D01*
X712123Y185377D01*
X712106Y185367D01*
X712039Y185288D01*
X711968Y185213D01*
X711960Y185195D01*
X711933Y185245D01*
X711919Y185259D01*
X711909Y185276D01*
X711830Y185343D01*
X711755Y185415D01*
X711737Y185423D01*
X711722Y185436D01*
X711625Y185475D01*
X711532Y185518D01*
X711512Y185520D01*
X711494Y185528D01*
X711327Y185546D01*
X699515Y185546D01*
X699515Y187278D01*
X699573Y187494D01*
X699582Y187587D01*
X699599Y187679D01*
X699594Y187709D01*
X699597Y187739D01*
X699577Y187830D01*
X699563Y187922D01*
X699549Y187949D01*
X699543Y187979D01*
X699494Y188058D01*
X699452Y188141D01*
X699430Y188163D01*
X699414Y188188D01*
X699343Y188248D01*
X699276Y188314D01*
X699243Y188332D01*
X699226Y188346D01*
X699195Y188358D01*
X699129Y188394D01*
X698459Y188672D01*
X696672Y190459D01*
X695705Y192793D01*
X695705Y200907D01*
X696672Y203241D01*
X698459Y205028D01*
X700793Y205995D01*
X717616Y205995D01*
X717706Y206009D01*
X717797Y206017D01*
X717827Y206029D01*
X717859Y206034D01*
X717939Y206077D01*
X718023Y206113D01*
X718055Y206139D01*
X718076Y206150D01*
X718098Y206173D01*
X718154Y206218D01*
X718596Y206660D01*
X718649Y206734D01*
X718709Y206803D01*
X718721Y206833D01*
X718740Y206859D01*
X718767Y206946D01*
X718801Y207031D01*
X718805Y207072D01*
X718812Y207095D01*
X718811Y207127D01*
X718819Y207198D01*
X718819Y211488D01*
X718816Y211508D01*
X718818Y211527D01*
X718796Y211629D01*
X718780Y211731D01*
X718770Y211748D01*
X718766Y211768D01*
X718713Y211857D01*
X718664Y211948D01*
X718650Y211962D01*
X718640Y211979D01*
X718561Y212046D01*
X718486Y212118D01*
X718468Y212126D01*
X718453Y212139D01*
X718357Y212178D01*
X718263Y212221D01*
X718243Y212223D01*
X718225Y212231D01*
X718058Y212249D01*
X715022Y212249D01*
X714957Y212239D01*
X714892Y212238D01*
X714812Y212215D01*
X714779Y212210D01*
X714762Y212200D01*
X714731Y212191D01*
X714484Y212089D01*
X669514Y212089D01*
X669443Y212078D01*
X669372Y212076D01*
X669323Y212058D01*
X669271Y212050D01*
X669208Y212016D01*
X669141Y211991D01*
X669100Y211959D01*
X669054Y211934D01*
X669005Y211882D01*
X668949Y211838D01*
X668920Y211794D01*
X668885Y211756D01*
X668854Y211691D01*
X668816Y211631D01*
X668803Y211580D01*
X668781Y211533D01*
X668773Y211462D01*
X668755Y211392D01*
X668760Y211340D01*
X668754Y211289D01*
X668769Y211218D01*
X668775Y211147D01*
X668795Y211099D01*
X668806Y211048D01*
X668843Y210987D01*
X668871Y210921D01*
X668916Y210865D01*
X668932Y210837D01*
X668950Y210822D01*
X668976Y210790D01*
X670090Y209675D01*
X671831Y205474D01*
X671831Y84842D01*
X671845Y84752D01*
X671853Y84661D01*
X671865Y84631D01*
X671870Y84599D01*
X671913Y84519D01*
X671949Y84435D01*
X671975Y84403D01*
X671986Y84382D01*
X672009Y84360D01*
X672054Y84304D01*
X674371Y81987D01*
X674371Y80978D01*
X674382Y80907D01*
X674384Y80836D01*
X674402Y80787D01*
X674410Y80735D01*
X674444Y80672D01*
X674469Y80605D01*
X674501Y80564D01*
X674526Y80518D01*
X674578Y80468D01*
X674622Y80412D01*
X674666Y80384D01*
X674704Y80348D01*
X674769Y80318D01*
X674829Y80279D01*
X674880Y80267D01*
X674927Y80245D01*
X674998Y80237D01*
X675068Y80219D01*
X675120Y80223D01*
X675171Y80218D01*
X675242Y80233D01*
X675313Y80239D01*
X675361Y80259D01*
X675412Y80270D01*
X675473Y80307D01*
X675539Y80335D01*
X675595Y80380D01*
X675623Y80396D01*
X675638Y80414D01*
X675670Y80440D01*
X681591Y86361D01*
X684277Y86361D01*
X684277Y76962D01*
X684280Y76942D01*
X684278Y76923D01*
X684300Y76821D01*
X684317Y76719D01*
X684326Y76702D01*
X684330Y76682D01*
X684383Y76593D01*
X684432Y76502D01*
X684446Y76488D01*
X684456Y76471D01*
X684535Y76404D01*
X684610Y76333D01*
X684628Y76324D01*
X684643Y76311D01*
X684739Y76273D01*
X684833Y76229D01*
X684853Y76227D01*
X684871Y76219D01*
X685038Y76201D01*
X685801Y76201D01*
X685801Y76199D01*
X685038Y76199D01*
X685018Y76196D01*
X684999Y76198D01*
X684897Y76176D01*
X684795Y76159D01*
X684778Y76150D01*
X684758Y76146D01*
X684669Y76093D01*
X684578Y76044D01*
X684564Y76030D01*
X684547Y76020D01*
X684480Y75941D01*
X684409Y75866D01*
X684400Y75848D01*
X684387Y75833D01*
X684348Y75737D01*
X684305Y75643D01*
X684303Y75623D01*
X684295Y75605D01*
X684277Y75438D01*
X684277Y66039D01*
X681591Y66039D01*
X675670Y71960D01*
X675612Y72002D01*
X675560Y72052D01*
X675513Y72073D01*
X675471Y72104D01*
X675402Y72125D01*
X675337Y72155D01*
X675285Y72161D01*
X675235Y72176D01*
X675164Y72174D01*
X675093Y72182D01*
X675042Y72171D01*
X674990Y72170D01*
X674922Y72145D01*
X674852Y72130D01*
X674807Y72103D01*
X674759Y72085D01*
X674703Y72041D01*
X674641Y72004D01*
X674607Y71964D01*
X674567Y71932D01*
X674528Y71871D01*
X674481Y71817D01*
X674462Y71769D01*
X674434Y71725D01*
X674416Y71655D01*
X674389Y71589D01*
X674381Y71517D01*
X674373Y71486D01*
X674375Y71463D01*
X674371Y71422D01*
X674371Y70413D01*
X666187Y62229D01*
X654613Y62229D01*
X646429Y70413D01*
X646429Y71422D01*
X646418Y71493D01*
X646416Y71564D01*
X646398Y71613D01*
X646390Y71665D01*
X646356Y71728D01*
X646331Y71795D01*
X646299Y71836D01*
X646274Y71882D01*
X646222Y71932D01*
X646178Y71988D01*
X646134Y72016D01*
X646096Y72052D01*
X646031Y72082D01*
X645971Y72121D01*
X645920Y72133D01*
X645873Y72155D01*
X645802Y72163D01*
X645732Y72181D01*
X645680Y72177D01*
X645629Y72182D01*
X645558Y72167D01*
X645487Y72161D01*
X645439Y72141D01*
X645388Y72130D01*
X645327Y72093D01*
X645261Y72065D01*
X645205Y72020D01*
X645177Y72004D01*
X645162Y71986D01*
X645130Y71960D01*
X639209Y66039D01*
X636523Y66039D01*
X636523Y75438D01*
X636520Y75458D01*
X636522Y75477D01*
X636500Y75579D01*
X636483Y75681D01*
X636474Y75698D01*
X636470Y75718D01*
X636417Y75807D01*
X636368Y75898D01*
X636354Y75912D01*
X636344Y75929D01*
X636265Y75996D01*
X636190Y76067D01*
X636172Y76076D01*
X636157Y76089D01*
X636061Y76127D01*
X635967Y76171D01*
X635947Y76173D01*
X635929Y76181D01*
X635762Y76199D01*
X634238Y76199D01*
X634218Y76196D01*
X634199Y76198D01*
X634097Y76176D01*
X633995Y76159D01*
X633978Y76150D01*
X633958Y76146D01*
X633869Y76093D01*
X633778Y76044D01*
X633764Y76030D01*
X633747Y76020D01*
X633680Y75941D01*
X633609Y75866D01*
X633600Y75848D01*
X633587Y75833D01*
X633548Y75737D01*
X633505Y75643D01*
X633503Y75623D01*
X633495Y75605D01*
X633477Y75438D01*
X633477Y66039D01*
X630791Y66039D01*
X624870Y71960D01*
X624812Y72002D01*
X624760Y72052D01*
X624713Y72073D01*
X624671Y72104D01*
X624602Y72125D01*
X624537Y72155D01*
X624485Y72161D01*
X624435Y72176D01*
X624364Y72174D01*
X624293Y72182D01*
X624242Y72171D01*
X624190Y72170D01*
X624122Y72145D01*
X624052Y72130D01*
X624007Y72103D01*
X623959Y72085D01*
X623903Y72041D01*
X623841Y72004D01*
X623807Y71964D01*
X623767Y71932D01*
X623728Y71871D01*
X623681Y71817D01*
X623662Y71769D01*
X623634Y71725D01*
X623616Y71655D01*
X623589Y71589D01*
X623581Y71517D01*
X623573Y71486D01*
X623575Y71463D01*
X623571Y71422D01*
X623571Y70413D01*
X615387Y62229D01*
X603813Y62229D01*
G37*
%LPD*%
G36*
X249040Y392445D02*
X249040Y392445D01*
X249131Y392453D01*
X249161Y392465D01*
X249193Y392470D01*
X249273Y392513D01*
X249357Y392549D01*
X249389Y392575D01*
X249410Y392586D01*
X249432Y392609D01*
X249488Y392654D01*
X263936Y407102D01*
X263989Y407176D01*
X264049Y407245D01*
X264061Y407275D01*
X264080Y407302D01*
X264107Y407388D01*
X264141Y407473D01*
X264145Y407514D01*
X264152Y407537D01*
X264151Y407569D01*
X264159Y407640D01*
X264159Y409432D01*
X266480Y415033D01*
X270008Y418562D01*
X270020Y418578D01*
X270035Y418590D01*
X270091Y418678D01*
X270152Y418761D01*
X270157Y418780D01*
X270168Y418797D01*
X270194Y418898D01*
X270224Y418997D01*
X270223Y419016D01*
X270228Y419036D01*
X270220Y419139D01*
X270218Y419242D01*
X270211Y419261D01*
X270209Y419281D01*
X270169Y419376D01*
X270133Y419473D01*
X270121Y419489D01*
X270113Y419507D01*
X270008Y419638D01*
X266480Y423167D01*
X264159Y428768D01*
X264159Y434832D01*
X266480Y440433D01*
X270008Y443962D01*
X270020Y443978D01*
X270035Y443990D01*
X270091Y444078D01*
X270152Y444161D01*
X270157Y444180D01*
X270168Y444197D01*
X270194Y444298D01*
X270224Y444397D01*
X270223Y444416D01*
X270228Y444436D01*
X270220Y444539D01*
X270218Y444642D01*
X270211Y444661D01*
X270209Y444681D01*
X270169Y444776D01*
X270133Y444873D01*
X270121Y444889D01*
X270113Y444907D01*
X270008Y445038D01*
X266480Y448567D01*
X264159Y454168D01*
X264159Y460232D01*
X266480Y465833D01*
X270008Y469362D01*
X270020Y469378D01*
X270035Y469390D01*
X270091Y469478D01*
X270152Y469561D01*
X270157Y469580D01*
X270168Y469597D01*
X270194Y469698D01*
X270224Y469797D01*
X270223Y469816D01*
X270228Y469836D01*
X270220Y469939D01*
X270218Y470042D01*
X270211Y470061D01*
X270209Y470081D01*
X270169Y470176D01*
X270133Y470273D01*
X270121Y470289D01*
X270113Y470307D01*
X270008Y470438D01*
X266480Y473967D01*
X264159Y479568D01*
X264159Y481360D01*
X264145Y481450D01*
X264137Y481541D01*
X264125Y481571D01*
X264120Y481603D01*
X264077Y481683D01*
X264041Y481767D01*
X264015Y481799D01*
X264004Y481820D01*
X263981Y481842D01*
X263973Y481852D01*
X263965Y481865D01*
X263957Y481873D01*
X263936Y481898D01*
X249488Y496346D01*
X249414Y496399D01*
X249345Y496459D01*
X249315Y496471D01*
X249288Y496490D01*
X249202Y496517D01*
X249117Y496551D01*
X249076Y496555D01*
X249053Y496562D01*
X249021Y496561D01*
X248950Y496569D01*
X217830Y496569D01*
X217759Y496558D01*
X217687Y496556D01*
X217638Y496538D01*
X217587Y496530D01*
X217524Y496496D01*
X217456Y496471D01*
X217416Y496439D01*
X217370Y496414D01*
X217320Y496363D01*
X217264Y496318D01*
X217236Y496274D01*
X217200Y496236D01*
X217170Y496171D01*
X217131Y496111D01*
X217119Y496060D01*
X217097Y496013D01*
X217089Y495942D01*
X217071Y495872D01*
X217075Y495820D01*
X217070Y495769D01*
X217085Y495698D01*
X217090Y495627D01*
X217111Y495579D01*
X217122Y495528D01*
X217159Y495467D01*
X217187Y495401D01*
X217232Y495345D01*
X217248Y495317D01*
X217266Y495302D01*
X217292Y495270D01*
X217474Y495087D01*
X218441Y492753D01*
X218441Y472447D01*
X217474Y470113D01*
X215687Y468326D01*
X215283Y468159D01*
X215244Y468135D01*
X215201Y468119D01*
X215141Y468070D01*
X215074Y468029D01*
X215045Y467994D01*
X215009Y467965D01*
X214967Y467900D01*
X214918Y467840D01*
X214901Y467797D01*
X214876Y467758D01*
X214857Y467683D01*
X214829Y467610D01*
X214827Y467564D01*
X214816Y467520D01*
X214822Y467442D01*
X214819Y467364D01*
X214832Y467320D01*
X214835Y467274D01*
X214866Y467203D01*
X214887Y467128D01*
X214914Y467090D01*
X214932Y467048D01*
X215017Y466941D01*
X215028Y466926D01*
X215032Y466923D01*
X215036Y466917D01*
X216120Y465833D01*
X218441Y460232D01*
X218441Y454168D01*
X216120Y448567D01*
X211833Y444280D01*
X208975Y443096D01*
X208939Y443074D01*
X208900Y443060D01*
X208835Y443009D01*
X208766Y442966D01*
X208739Y442934D01*
X208706Y442908D01*
X208661Y442839D01*
X208609Y442777D01*
X208594Y442737D01*
X208571Y442702D01*
X208550Y442623D01*
X208521Y442547D01*
X208519Y442505D01*
X208509Y442464D01*
X208514Y442383D01*
X208511Y442301D01*
X208522Y442261D01*
X208525Y442219D01*
X208556Y442143D01*
X208579Y442065D01*
X208603Y442031D01*
X208619Y441992D01*
X208673Y441930D01*
X208719Y441863D01*
X208753Y441838D01*
X208781Y441806D01*
X208910Y441721D01*
X208917Y441716D01*
X208919Y441716D01*
X208921Y441714D01*
X209191Y441576D01*
X210647Y440519D01*
X211919Y439247D01*
X212976Y437791D01*
X213793Y436188D01*
X214349Y434477D01*
X214532Y433323D01*
X203962Y433323D01*
X203942Y433320D01*
X203923Y433322D01*
X203821Y433300D01*
X203719Y433283D01*
X203702Y433274D01*
X203682Y433270D01*
X203593Y433217D01*
X203502Y433168D01*
X203488Y433154D01*
X203471Y433144D01*
X203404Y433065D01*
X203333Y432990D01*
X203324Y432972D01*
X203311Y432957D01*
X203273Y432861D01*
X203229Y432767D01*
X203227Y432747D01*
X203219Y432729D01*
X203201Y432562D01*
X203201Y431038D01*
X203204Y431018D01*
X203202Y430999D01*
X203224Y430897D01*
X203241Y430795D01*
X203250Y430778D01*
X203254Y430758D01*
X203307Y430669D01*
X203356Y430578D01*
X203370Y430564D01*
X203380Y430547D01*
X203459Y430480D01*
X203534Y430409D01*
X203552Y430400D01*
X203567Y430387D01*
X203663Y430348D01*
X203757Y430305D01*
X203777Y430303D01*
X203795Y430295D01*
X203962Y430277D01*
X214532Y430277D01*
X214349Y429123D01*
X213793Y427412D01*
X212976Y425809D01*
X211919Y424353D01*
X210647Y423081D01*
X209191Y422024D01*
X208921Y421886D01*
X208887Y421861D01*
X208849Y421844D01*
X208789Y421789D01*
X208723Y421740D01*
X208698Y421706D01*
X208668Y421678D01*
X208628Y421606D01*
X208581Y421539D01*
X208569Y421499D01*
X208549Y421462D01*
X208534Y421382D01*
X208511Y421303D01*
X208513Y421261D01*
X208505Y421220D01*
X208517Y421139D01*
X208520Y421057D01*
X208535Y421018D01*
X208541Y420977D01*
X208578Y420904D01*
X208607Y420827D01*
X208633Y420795D01*
X208653Y420757D01*
X208711Y420700D01*
X208763Y420637D01*
X208798Y420615D01*
X208828Y420585D01*
X208964Y420511D01*
X208971Y420506D01*
X208973Y420506D01*
X208975Y420504D01*
X211833Y419320D01*
X216120Y415033D01*
X218441Y409432D01*
X218441Y403368D01*
X216120Y397767D01*
X212084Y393730D01*
X212042Y393672D01*
X211993Y393620D01*
X211971Y393573D01*
X211940Y393531D01*
X211919Y393462D01*
X211889Y393397D01*
X211883Y393345D01*
X211868Y393295D01*
X211870Y393224D01*
X211862Y393153D01*
X211873Y393102D01*
X211874Y393050D01*
X211899Y392982D01*
X211914Y392912D01*
X211941Y392867D01*
X211959Y392819D01*
X212004Y392763D01*
X212040Y392701D01*
X212080Y392667D01*
X212113Y392627D01*
X212173Y392588D01*
X212227Y392541D01*
X212276Y392522D01*
X212319Y392494D01*
X212389Y392476D01*
X212455Y392449D01*
X212527Y392441D01*
X212558Y392433D01*
X212581Y392435D01*
X212622Y392431D01*
X248950Y392431D01*
X249040Y392445D01*
G37*
G36*
X635782Y76204D02*
X635782Y76204D01*
X635801Y76202D01*
X635903Y76224D01*
X636005Y76241D01*
X636022Y76250D01*
X636042Y76254D01*
X636131Y76307D01*
X636222Y76356D01*
X636236Y76370D01*
X636253Y76380D01*
X636320Y76459D01*
X636391Y76534D01*
X636400Y76552D01*
X636413Y76567D01*
X636452Y76663D01*
X636495Y76757D01*
X636497Y76777D01*
X636505Y76795D01*
X636523Y76962D01*
X636523Y86361D01*
X639209Y86361D01*
X645130Y80440D01*
X645188Y80398D01*
X645240Y80348D01*
X645287Y80327D01*
X645329Y80296D01*
X645398Y80275D01*
X645463Y80245D01*
X645515Y80239D01*
X645565Y80224D01*
X645636Y80226D01*
X645707Y80218D01*
X645758Y80229D01*
X645810Y80230D01*
X645878Y80255D01*
X645948Y80270D01*
X645993Y80297D01*
X646041Y80315D01*
X646097Y80359D01*
X646159Y80396D01*
X646193Y80436D01*
X646233Y80468D01*
X646272Y80529D01*
X646319Y80583D01*
X646338Y80631D01*
X646366Y80675D01*
X646384Y80745D01*
X646411Y80811D01*
X646419Y80883D01*
X646427Y80914D01*
X646425Y80937D01*
X646429Y80978D01*
X646429Y81987D01*
X648746Y84304D01*
X648799Y84378D01*
X648859Y84447D01*
X648871Y84477D01*
X648890Y84504D01*
X648917Y84591D01*
X648951Y84675D01*
X648955Y84716D01*
X648962Y84739D01*
X648961Y84771D01*
X648969Y84842D01*
X648969Y116500D01*
X648958Y116571D01*
X648956Y116643D01*
X648938Y116692D01*
X648930Y116743D01*
X648896Y116806D01*
X648871Y116874D01*
X648839Y116914D01*
X648814Y116960D01*
X648762Y117010D01*
X648718Y117066D01*
X648674Y117094D01*
X648636Y117130D01*
X648571Y117160D01*
X648511Y117199D01*
X648460Y117211D01*
X648413Y117233D01*
X648342Y117241D01*
X648272Y117259D01*
X648220Y117255D01*
X648169Y117260D01*
X648098Y117245D01*
X648027Y117240D01*
X647979Y117219D01*
X647928Y117208D01*
X647867Y117171D01*
X647801Y117143D01*
X647745Y117099D01*
X647717Y117082D01*
X647702Y117064D01*
X647670Y117038D01*
X641629Y110997D01*
X628371Y110997D01*
X624022Y115346D01*
X623948Y115399D01*
X623879Y115459D01*
X623849Y115471D01*
X623823Y115490D01*
X623736Y115517D01*
X623651Y115551D01*
X623610Y115555D01*
X623588Y115562D01*
X623555Y115561D01*
X623484Y115569D01*
X609092Y115569D01*
X609072Y115566D01*
X609053Y115568D01*
X608951Y115546D01*
X608849Y115530D01*
X608832Y115520D01*
X608812Y115516D01*
X608723Y115463D01*
X608632Y115414D01*
X608618Y115400D01*
X608601Y115390D01*
X608534Y115311D01*
X608462Y115236D01*
X608454Y115218D01*
X608441Y115203D01*
X608402Y115107D01*
X608359Y115013D01*
X608357Y114993D01*
X608349Y114975D01*
X608331Y114808D01*
X608331Y93950D01*
X608345Y93860D01*
X608353Y93769D01*
X608365Y93739D01*
X608370Y93707D01*
X608413Y93627D01*
X608449Y93543D01*
X608475Y93511D01*
X608486Y93490D01*
X608509Y93468D01*
X608554Y93412D01*
X611572Y90394D01*
X611646Y90341D01*
X611715Y90281D01*
X611745Y90269D01*
X611772Y90250D01*
X611858Y90223D01*
X611943Y90189D01*
X611984Y90185D01*
X612007Y90178D01*
X612039Y90179D01*
X612110Y90171D01*
X615387Y90171D01*
X623571Y81987D01*
X623571Y80978D01*
X623582Y80907D01*
X623584Y80836D01*
X623602Y80787D01*
X623610Y80735D01*
X623644Y80672D01*
X623669Y80605D01*
X623701Y80564D01*
X623726Y80518D01*
X623778Y80468D01*
X623822Y80412D01*
X623866Y80384D01*
X623904Y80348D01*
X623969Y80318D01*
X624029Y80279D01*
X624080Y80267D01*
X624127Y80245D01*
X624198Y80237D01*
X624268Y80219D01*
X624320Y80223D01*
X624371Y80218D01*
X624442Y80233D01*
X624513Y80239D01*
X624561Y80259D01*
X624612Y80270D01*
X624673Y80307D01*
X624739Y80335D01*
X624795Y80380D01*
X624823Y80396D01*
X624838Y80414D01*
X624870Y80440D01*
X630791Y86361D01*
X633477Y86361D01*
X633477Y76962D01*
X633480Y76942D01*
X633478Y76923D01*
X633500Y76821D01*
X633517Y76719D01*
X633526Y76702D01*
X633530Y76682D01*
X633583Y76593D01*
X633632Y76502D01*
X633646Y76488D01*
X633656Y76471D01*
X633735Y76404D01*
X633810Y76333D01*
X633828Y76324D01*
X633843Y76311D01*
X633939Y76273D01*
X634033Y76229D01*
X634053Y76227D01*
X634071Y76219D01*
X634238Y76201D01*
X635762Y76201D01*
X635782Y76204D01*
G37*
%LPC*%
G36*
X700793Y149605D02*
X700793Y149605D01*
X698459Y150572D01*
X696672Y152359D01*
X695705Y154693D01*
X695705Y162807D01*
X696672Y165141D01*
X698459Y166928D01*
X699129Y167206D01*
X699208Y167255D01*
X699291Y167298D01*
X699312Y167319D01*
X699338Y167335D01*
X699398Y167407D01*
X699463Y167474D01*
X699476Y167501D01*
X699495Y167525D01*
X699528Y167612D01*
X699569Y167696D01*
X699572Y167726D01*
X699583Y167754D01*
X699587Y167848D01*
X699598Y167940D01*
X699593Y167978D01*
X699594Y168000D01*
X699584Y168031D01*
X699573Y168106D01*
X699515Y168322D01*
X699515Y170054D01*
X711327Y170054D01*
X711346Y170057D01*
X711366Y170055D01*
X711468Y170077D01*
X711570Y170093D01*
X711587Y170103D01*
X711607Y170107D01*
X711696Y170160D01*
X711787Y170209D01*
X711801Y170223D01*
X711818Y170233D01*
X711885Y170312D01*
X711956Y170387D01*
X711964Y170404D01*
X711991Y170355D01*
X712005Y170341D01*
X712015Y170324D01*
X712094Y170257D01*
X712169Y170185D01*
X712187Y170177D01*
X712202Y170164D01*
X712299Y170125D01*
X712392Y170082D01*
X712412Y170080D01*
X712430Y170072D01*
X712597Y170054D01*
X724409Y170054D01*
X724409Y168322D01*
X724351Y168106D01*
X724342Y168013D01*
X724325Y167921D01*
X724330Y167891D01*
X724327Y167861D01*
X724347Y167770D01*
X724361Y167678D01*
X724375Y167651D01*
X724381Y167621D01*
X724430Y167542D01*
X724472Y167459D01*
X724494Y167437D01*
X724510Y167412D01*
X724581Y167352D01*
X724648Y167286D01*
X724681Y167268D01*
X724698Y167254D01*
X724729Y167242D01*
X724795Y167206D01*
X725465Y166928D01*
X727252Y165141D01*
X728219Y162807D01*
X728219Y154693D01*
X727252Y152359D01*
X725465Y150572D01*
X723131Y149605D01*
X700793Y149605D01*
G37*
%LPD*%
%LPC*%
G36*
X65023Y230123D02*
X65023Y230123D01*
X65023Y250176D01*
X67721Y249821D01*
X70455Y249089D01*
X73070Y248006D01*
X75521Y246591D01*
X77766Y244868D01*
X79768Y242866D01*
X81491Y240621D01*
X82906Y238170D01*
X83989Y235555D01*
X84721Y232821D01*
X85076Y230123D01*
X65023Y230123D01*
G37*
%LPD*%
%LPC*%
G36*
X41924Y230123D02*
X41924Y230123D01*
X42279Y232821D01*
X43011Y235555D01*
X44094Y238170D01*
X45509Y240621D01*
X47232Y242866D01*
X49234Y244868D01*
X51479Y246591D01*
X53930Y248006D01*
X56545Y249089D01*
X59279Y249821D01*
X61977Y250176D01*
X61977Y230123D01*
X41924Y230123D01*
G37*
%LPD*%
%LPC*%
G36*
X65023Y227077D02*
X65023Y227077D01*
X85076Y227077D01*
X84721Y224379D01*
X83989Y221645D01*
X82906Y219030D01*
X81491Y216579D01*
X79768Y214334D01*
X77766Y212332D01*
X75521Y210609D01*
X73070Y209194D01*
X70455Y208111D01*
X67721Y207379D01*
X65023Y207024D01*
X65023Y227077D01*
G37*
%LPD*%
%LPC*%
G36*
X59279Y207379D02*
X59279Y207379D01*
X56545Y208111D01*
X53930Y209194D01*
X51479Y210609D01*
X49234Y212332D01*
X47232Y214334D01*
X45509Y216579D01*
X44094Y219030D01*
X43011Y221645D01*
X42279Y224379D01*
X41924Y227077D01*
X61977Y227077D01*
X61977Y207024D01*
X59279Y207379D01*
G37*
%LPD*%
%LPC*%
G36*
X219963Y344423D02*
X219963Y344423D01*
X219963Y360392D01*
X221869Y360141D01*
X224090Y359545D01*
X226215Y358666D01*
X228206Y357516D01*
X230030Y356116D01*
X231656Y354490D01*
X233056Y352666D01*
X234206Y350675D01*
X235085Y348550D01*
X235681Y346329D01*
X235932Y344423D01*
X219963Y344423D01*
G37*
%LPD*%
%LPC*%
G36*
X200948Y344423D02*
X200948Y344423D01*
X201199Y346329D01*
X201795Y348550D01*
X202674Y350675D01*
X203824Y352666D01*
X205224Y354490D01*
X206850Y356116D01*
X208674Y357516D01*
X210665Y358666D01*
X212790Y359545D01*
X215011Y360141D01*
X216917Y360392D01*
X216917Y344423D01*
X200948Y344423D01*
G37*
%LPD*%
%LPC*%
G36*
X219963Y341377D02*
X219963Y341377D01*
X235932Y341377D01*
X235681Y339471D01*
X235085Y337250D01*
X234206Y335125D01*
X233056Y333134D01*
X231656Y331310D01*
X230030Y329684D01*
X228206Y328284D01*
X226215Y327134D01*
X224090Y326255D01*
X221869Y325659D01*
X219963Y325408D01*
X219963Y341377D01*
G37*
%LPD*%
%LPC*%
G36*
X215011Y325659D02*
X215011Y325659D01*
X212790Y326255D01*
X210665Y327134D01*
X208674Y328284D01*
X206850Y329684D01*
X205224Y331310D01*
X203824Y333134D01*
X202674Y335125D01*
X201795Y337250D01*
X201199Y339471D01*
X200948Y341377D01*
X216917Y341377D01*
X216917Y325408D01*
X215011Y325659D01*
G37*
%LPD*%
%LPC*%
G36*
X115823Y90423D02*
X115823Y90423D01*
X115823Y104141D01*
X127334Y104141D01*
X127981Y103968D01*
X128560Y103633D01*
X129033Y103160D01*
X129368Y102581D01*
X129541Y101934D01*
X129541Y90423D01*
X115823Y90423D01*
G37*
%LPD*%
%LPC*%
G36*
X115823Y73659D02*
X115823Y73659D01*
X115823Y87377D01*
X129541Y87377D01*
X129541Y75866D01*
X129368Y75219D01*
X129033Y74640D01*
X128560Y74167D01*
X127981Y73832D01*
X127334Y73659D01*
X115823Y73659D01*
G37*
%LPD*%
%LPC*%
G36*
X99059Y90423D02*
X99059Y90423D01*
X99059Y101934D01*
X99232Y102581D01*
X99567Y103160D01*
X100040Y103633D01*
X100619Y103968D01*
X101266Y104141D01*
X112777Y104141D01*
X112777Y90423D01*
X99059Y90423D01*
G37*
%LPD*%
%LPC*%
G36*
X101266Y73659D02*
X101266Y73659D01*
X100619Y73832D01*
X100040Y74167D01*
X99567Y74640D01*
X99232Y75219D01*
X99059Y75866D01*
X99059Y87377D01*
X112777Y87377D01*
X112777Y73659D01*
X101266Y73659D01*
G37*
%LPD*%
%LPC*%
G36*
X65023Y547623D02*
X65023Y547623D01*
X65023Y561289D01*
X67069Y560965D01*
X69350Y560224D01*
X71488Y559135D01*
X73429Y557725D01*
X75125Y556029D01*
X76535Y554088D01*
X77624Y551950D01*
X78365Y549669D01*
X78689Y547623D01*
X65023Y547623D01*
G37*
%LPD*%
%LPC*%
G36*
X48311Y547623D02*
X48311Y547623D01*
X48635Y549669D01*
X49376Y551950D01*
X50465Y554088D01*
X51875Y556029D01*
X53571Y557725D01*
X55512Y559135D01*
X57650Y560224D01*
X59931Y560965D01*
X61977Y561289D01*
X61977Y547623D01*
X48311Y547623D01*
G37*
%LPD*%
%LPC*%
G36*
X65023Y544577D02*
X65023Y544577D01*
X78689Y544577D01*
X78365Y542531D01*
X77624Y540250D01*
X76535Y538112D01*
X75125Y536171D01*
X73429Y534475D01*
X71488Y533065D01*
X69350Y531976D01*
X67069Y531235D01*
X65023Y530911D01*
X65023Y544577D01*
G37*
%LPD*%
%LPC*%
G36*
X59931Y531235D02*
X59931Y531235D01*
X57650Y531976D01*
X55512Y533065D01*
X53571Y534475D01*
X51875Y536171D01*
X50465Y538112D01*
X49376Y540250D01*
X48635Y542531D01*
X48311Y544577D01*
X61977Y544577D01*
X61977Y530911D01*
X59931Y531235D01*
G37*
%LPD*%
%LPC*%
G36*
X802893Y203213D02*
X802893Y203213D01*
X802893Y211731D01*
X811704Y211731D01*
X812351Y211558D01*
X812930Y211223D01*
X813403Y210750D01*
X813738Y210171D01*
X813911Y209524D01*
X813911Y203213D01*
X802893Y203213D01*
G37*
%LPD*%
%LPC*%
G36*
X802893Y200167D02*
X802893Y200167D01*
X813911Y200167D01*
X813911Y193856D01*
X813738Y193209D01*
X813403Y192630D01*
X812930Y192157D01*
X812351Y191822D01*
X811704Y191649D01*
X802893Y191649D01*
X802893Y200167D01*
G37*
%LPD*%
%LPC*%
G36*
X788829Y203213D02*
X788829Y203213D01*
X788829Y209524D01*
X789002Y210171D01*
X789337Y210750D01*
X789810Y211223D01*
X790389Y211558D01*
X791036Y211731D01*
X799847Y211731D01*
X799847Y203213D01*
X788829Y203213D01*
G37*
%LPD*%
%LPC*%
G36*
X791036Y191649D02*
X791036Y191649D01*
X790389Y191822D01*
X789810Y192157D01*
X789337Y192630D01*
X789002Y193209D01*
X788829Y193856D01*
X788829Y200167D01*
X799847Y200167D01*
X799847Y191649D01*
X791036Y191649D01*
G37*
%LPD*%
%LPC*%
G36*
X496823Y128523D02*
X496823Y128523D01*
X496823Y139193D01*
X500350Y139193D01*
X507493Y132050D01*
X507493Y128523D01*
X496823Y128523D01*
G37*
%LPD*%
%LPC*%
G36*
X496823Y114807D02*
X496823Y114807D01*
X496823Y125477D01*
X507493Y125477D01*
X507493Y121950D01*
X500350Y114807D01*
X496823Y114807D01*
G37*
%LPD*%
%LPC*%
G36*
X483107Y128523D02*
X483107Y128523D01*
X483107Y132050D01*
X490250Y139193D01*
X493777Y139193D01*
X493777Y128523D01*
X483107Y128523D01*
G37*
%LPD*%
%LPC*%
G36*
X490250Y114807D02*
X490250Y114807D01*
X483107Y121950D01*
X483107Y125477D01*
X493777Y125477D01*
X493777Y114807D01*
X490250Y114807D01*
G37*
%LPD*%
%LPC*%
G36*
X179323Y547623D02*
X179323Y547623D01*
X179323Y558166D01*
X182798Y558166D01*
X189866Y551098D01*
X189866Y547623D01*
X179323Y547623D01*
G37*
%LPD*%
%LPC*%
G36*
X573023Y179323D02*
X573023Y179323D01*
X573023Y189866D01*
X576498Y189866D01*
X583566Y182798D01*
X583566Y179323D01*
X573023Y179323D01*
G37*
%LPD*%
%LPC*%
G36*
X165734Y547623D02*
X165734Y547623D01*
X165734Y551098D01*
X172802Y558166D01*
X176277Y558166D01*
X176277Y547623D01*
X165734Y547623D01*
G37*
%LPD*%
%LPC*%
G36*
X573023Y165734D02*
X573023Y165734D01*
X573023Y176277D01*
X583566Y176277D01*
X583566Y172802D01*
X576498Y165734D01*
X573023Y165734D01*
G37*
%LPD*%
%LPC*%
G36*
X559434Y179323D02*
X559434Y179323D01*
X559434Y182798D01*
X566502Y189866D01*
X569977Y189866D01*
X569977Y179323D01*
X559434Y179323D01*
G37*
%LPD*%
%LPC*%
G36*
X179323Y534034D02*
X179323Y534034D01*
X179323Y544577D01*
X189866Y544577D01*
X189866Y541102D01*
X182798Y534034D01*
X179323Y534034D01*
G37*
%LPD*%
%LPC*%
G36*
X566502Y165734D02*
X566502Y165734D01*
X559434Y172802D01*
X559434Y176277D01*
X569977Y176277D01*
X569977Y165734D01*
X566502Y165734D01*
G37*
%LPD*%
%LPC*%
G36*
X172802Y534034D02*
X172802Y534034D01*
X165734Y541102D01*
X165734Y544577D01*
X176277Y544577D01*
X176277Y534034D01*
X172802Y534034D01*
G37*
%LPD*%
%LPC*%
G36*
X319023Y547623D02*
X319023Y547623D01*
X319023Y556642D01*
X321867Y556642D01*
X328042Y550467D01*
X328042Y547623D01*
X319023Y547623D01*
G37*
%LPD*%
%LPC*%
G36*
X280923Y547623D02*
X280923Y547623D01*
X280923Y556642D01*
X283767Y556642D01*
X289942Y550467D01*
X289942Y547623D01*
X280923Y547623D01*
G37*
%LPD*%
%LPC*%
G36*
X242823Y547623D02*
X242823Y547623D01*
X242823Y556642D01*
X245667Y556642D01*
X251842Y550467D01*
X251842Y547623D01*
X242823Y547623D01*
G37*
%LPD*%
%LPC*%
G36*
X509523Y179323D02*
X509523Y179323D01*
X509523Y188342D01*
X512367Y188342D01*
X518542Y182167D01*
X518542Y179323D01*
X509523Y179323D01*
G37*
%LPD*%
%LPC*%
G36*
X319023Y535558D02*
X319023Y535558D01*
X319023Y544577D01*
X328042Y544577D01*
X328042Y541733D01*
X321867Y535558D01*
X319023Y535558D01*
G37*
%LPD*%
%LPC*%
G36*
X306958Y547623D02*
X306958Y547623D01*
X306958Y550467D01*
X313133Y556642D01*
X315977Y556642D01*
X315977Y547623D01*
X306958Y547623D01*
G37*
%LPD*%
%LPC*%
G36*
X230758Y547623D02*
X230758Y547623D01*
X230758Y550467D01*
X236933Y556642D01*
X239777Y556642D01*
X239777Y547623D01*
X230758Y547623D01*
G37*
%LPD*%
%LPC*%
G36*
X280923Y535558D02*
X280923Y535558D01*
X280923Y544577D01*
X289942Y544577D01*
X289942Y541733D01*
X283767Y535558D01*
X280923Y535558D01*
G37*
%LPD*%
%LPC*%
G36*
X242823Y535558D02*
X242823Y535558D01*
X242823Y544577D01*
X251842Y544577D01*
X251842Y541733D01*
X245667Y535558D01*
X242823Y535558D01*
G37*
%LPD*%
%LPC*%
G36*
X497458Y179323D02*
X497458Y179323D01*
X497458Y182167D01*
X503633Y188342D01*
X506477Y188342D01*
X506477Y179323D01*
X497458Y179323D01*
G37*
%LPD*%
%LPC*%
G36*
X268858Y547623D02*
X268858Y547623D01*
X268858Y550467D01*
X275033Y556642D01*
X277877Y556642D01*
X277877Y547623D01*
X268858Y547623D01*
G37*
%LPD*%
%LPC*%
G36*
X509523Y167258D02*
X509523Y167258D01*
X509523Y176277D01*
X518542Y176277D01*
X518542Y173433D01*
X512367Y167258D01*
X509523Y167258D01*
G37*
%LPD*%
%LPC*%
G36*
X236933Y535558D02*
X236933Y535558D01*
X230758Y541733D01*
X230758Y544577D01*
X239777Y544577D01*
X239777Y535558D01*
X236933Y535558D01*
G37*
%LPD*%
%LPC*%
G36*
X275033Y535558D02*
X275033Y535558D01*
X268858Y541733D01*
X268858Y544577D01*
X277877Y544577D01*
X277877Y535558D01*
X275033Y535558D01*
G37*
%LPD*%
%LPC*%
G36*
X503633Y167258D02*
X503633Y167258D01*
X497458Y173433D01*
X497458Y176277D01*
X506477Y176277D01*
X506477Y167258D01*
X503633Y167258D01*
G37*
%LPD*%
%LPC*%
G36*
X313133Y535558D02*
X313133Y535558D01*
X306958Y541733D01*
X306958Y544577D01*
X315977Y544577D01*
X315977Y535558D01*
X313133Y535558D01*
G37*
%LPD*%
%LPC*%
G36*
X293623Y661923D02*
X293623Y661923D01*
X293623Y670561D01*
X296309Y670561D01*
X302261Y664609D01*
X302261Y661923D01*
X293623Y661923D01*
G37*
%LPD*%
%LPC*%
G36*
X687323Y77723D02*
X687323Y77723D01*
X687323Y86361D01*
X690009Y86361D01*
X695961Y80409D01*
X695961Y77723D01*
X687323Y77723D01*
G37*
%LPD*%
%LPC*%
G36*
X52323Y90423D02*
X52323Y90423D01*
X52323Y99061D01*
X55009Y99061D01*
X60961Y93109D01*
X60961Y90423D01*
X52323Y90423D01*
G37*
%LPD*%
%LPC*%
G36*
X281939Y661923D02*
X281939Y661923D01*
X281939Y664609D01*
X287891Y670561D01*
X290577Y670561D01*
X290577Y661923D01*
X281939Y661923D01*
G37*
%LPD*%
%LPC*%
G36*
X701039Y77723D02*
X701039Y77723D01*
X701039Y80409D01*
X706991Y86361D01*
X709677Y86361D01*
X709677Y77723D01*
X701039Y77723D01*
G37*
%LPD*%
%LPC*%
G36*
X40639Y90423D02*
X40639Y90423D01*
X40639Y93109D01*
X46591Y99061D01*
X49277Y99061D01*
X49277Y90423D01*
X40639Y90423D01*
G37*
%LPD*%
%LPC*%
G36*
X65023Y320039D02*
X65023Y320039D01*
X65023Y328677D01*
X73661Y328677D01*
X73661Y325991D01*
X67709Y320039D01*
X65023Y320039D01*
G37*
%LPD*%
%LPC*%
G36*
X52323Y78739D02*
X52323Y78739D01*
X52323Y87377D01*
X60961Y87377D01*
X60961Y84691D01*
X55009Y78739D01*
X52323Y78739D01*
G37*
%LPD*%
%LPC*%
G36*
X293623Y650239D02*
X293623Y650239D01*
X293623Y658877D01*
X302261Y658877D01*
X302261Y656191D01*
X296309Y650239D01*
X293623Y650239D01*
G37*
%LPD*%
%LPC*%
G36*
X687323Y66039D02*
X687323Y66039D01*
X687323Y74677D01*
X695961Y74677D01*
X695961Y71991D01*
X690009Y66039D01*
X687323Y66039D01*
G37*
%LPD*%
%LPC*%
G36*
X59291Y320039D02*
X59291Y320039D01*
X53339Y325991D01*
X53339Y328677D01*
X61977Y328677D01*
X61977Y320039D01*
X59291Y320039D01*
G37*
%LPD*%
%LPC*%
G36*
X287891Y650239D02*
X287891Y650239D01*
X281939Y656191D01*
X281939Y658877D01*
X290577Y658877D01*
X290577Y650239D01*
X287891Y650239D01*
G37*
%LPD*%
%LPC*%
G36*
X46591Y78739D02*
X46591Y78739D01*
X40639Y84691D01*
X40639Y87377D01*
X49277Y87377D01*
X49277Y78739D01*
X46591Y78739D01*
G37*
%LPD*%
%LPC*%
G36*
X706991Y66039D02*
X706991Y66039D01*
X701039Y71991D01*
X701039Y74677D01*
X709677Y74677D01*
X709677Y66039D01*
X706991Y66039D01*
G37*
%LPD*%
%LPC*%
G36*
X713358Y172846D02*
X713358Y172846D01*
X713358Y176785D01*
X722202Y176785D01*
X722849Y176612D01*
X723428Y176277D01*
X723901Y175804D01*
X724236Y175225D01*
X724409Y174578D01*
X724409Y172846D01*
X713358Y172846D01*
G37*
%LPD*%
%LPC*%
G36*
X699515Y172846D02*
X699515Y172846D01*
X699515Y174578D01*
X699688Y175225D01*
X700023Y175804D01*
X700496Y176277D01*
X701075Y176612D01*
X701722Y176785D01*
X710566Y176785D01*
X710566Y172846D01*
X699515Y172846D01*
G37*
%LPD*%
%LPC*%
G36*
X713358Y178815D02*
X713358Y178815D01*
X713358Y182754D01*
X724409Y182754D01*
X724409Y181022D01*
X724236Y180375D01*
X723901Y179796D01*
X723428Y179323D01*
X722849Y178988D01*
X722202Y178815D01*
X713358Y178815D01*
G37*
%LPD*%
%LPC*%
G36*
X701722Y178815D02*
X701722Y178815D01*
X701075Y178988D01*
X700496Y179323D01*
X700023Y179796D01*
X699688Y180375D01*
X699515Y181022D01*
X699515Y182754D01*
X710566Y182754D01*
X710566Y178815D01*
X701722Y178815D01*
G37*
%LPD*%
%LPC*%
G36*
X218439Y342899D02*
X218439Y342899D01*
X218439Y342901D01*
X218441Y342901D01*
X218441Y342899D01*
X218439Y342899D01*
G37*
%LPD*%
%LPC*%
G36*
X241299Y546099D02*
X241299Y546099D01*
X241299Y546101D01*
X241301Y546101D01*
X241301Y546099D01*
X241299Y546099D01*
G37*
%LPD*%
%LPC*%
G36*
X495299Y126999D02*
X495299Y126999D01*
X495299Y127001D01*
X495301Y127001D01*
X495301Y126999D01*
X495299Y126999D01*
G37*
%LPD*%
%LPC*%
G36*
X279399Y546099D02*
X279399Y546099D01*
X279399Y546101D01*
X279401Y546101D01*
X279401Y546099D01*
X279399Y546099D01*
G37*
%LPD*%
%LPC*%
G36*
X317499Y546099D02*
X317499Y546099D01*
X317499Y546101D01*
X317501Y546101D01*
X317501Y546099D01*
X317499Y546099D01*
G37*
%LPD*%
%LPC*%
G36*
X571499Y177799D02*
X571499Y177799D01*
X571499Y177801D01*
X571501Y177801D01*
X571501Y177799D01*
X571499Y177799D01*
G37*
%LPD*%
%LPC*%
G36*
X63499Y546099D02*
X63499Y546099D01*
X63499Y546101D01*
X63501Y546101D01*
X63501Y546099D01*
X63499Y546099D01*
G37*
%LPD*%
%LPC*%
G36*
X507999Y177799D02*
X507999Y177799D01*
X507999Y177801D01*
X508001Y177801D01*
X508001Y177799D01*
X507999Y177799D01*
G37*
%LPD*%
%LPC*%
G36*
X50799Y88899D02*
X50799Y88899D01*
X50799Y88901D01*
X50801Y88901D01*
X50801Y88899D01*
X50799Y88899D01*
G37*
%LPD*%
%LPC*%
G36*
X114299Y88899D02*
X114299Y88899D01*
X114299Y88901D01*
X114301Y88901D01*
X114301Y88899D01*
X114299Y88899D01*
G37*
%LPD*%
%LPC*%
G36*
X292099Y660399D02*
X292099Y660399D01*
X292099Y660401D01*
X292101Y660401D01*
X292101Y660399D01*
X292099Y660399D01*
G37*
%LPD*%
%LPC*%
G36*
X63499Y228599D02*
X63499Y228599D01*
X63499Y228601D01*
X63501Y228601D01*
X63501Y228599D01*
X63499Y228599D01*
G37*
%LPD*%
%LPC*%
G36*
X177799Y546099D02*
X177799Y546099D01*
X177799Y546101D01*
X177801Y546101D01*
X177801Y546099D01*
X177799Y546099D01*
G37*
%LPD*%
%LPC*%
G36*
X801369Y201689D02*
X801369Y201689D01*
X801369Y201691D01*
X801371Y201691D01*
X801371Y201689D01*
X801369Y201689D01*
G37*
%LPD*%
D10*
X508000Y228600D03*
X508000Y177800D03*
X241300Y596900D03*
X241300Y546100D03*
X444500Y469900D03*
X444500Y419100D03*
D11*
X177800Y596900D03*
D12*
X177800Y546100D03*
D11*
X381000Y469900D03*
D12*
X381000Y419100D03*
D11*
X571500Y228600D03*
D12*
X571500Y177800D03*
D13*
X419100Y342900D03*
D14*
X218440Y342900D03*
D15*
X63500Y469900D03*
D16*
X63500Y419100D03*
D17*
X527050Y495300D03*
X819150Y495300D03*
D18*
X165100Y355600D03*
X165100Y457200D03*
X317500Y393700D03*
X317500Y495300D03*
X419100Y546100D03*
X419100Y647700D03*
D19*
X495300Y127000D03*
X596900Y127000D03*
D18*
X635000Y127000D03*
X635000Y228600D03*
D15*
X114300Y88900D03*
D16*
X419100Y88900D03*
D17*
X63500Y228600D03*
X331724Y228600D03*
D15*
X63500Y596900D03*
D16*
X63500Y546100D03*
D10*
X279400Y596900D03*
X279400Y546100D03*
X317500Y596900D03*
X317500Y546100D03*
D20*
X363700Y623900D03*
X363700Y596900D03*
X363700Y569900D03*
D21*
X419100Y228600D03*
X419100Y181600D03*
D22*
X469900Y584200D03*
X63500Y660400D03*
X469900Y647700D03*
X50800Y88900D03*
X292100Y660400D03*
X381000Y508000D03*
X609600Y76200D03*
X660400Y76200D03*
D23*
X203200Y482600D03*
D24*
X203200Y457200D03*
X203200Y431800D03*
X203200Y406400D03*
X279400Y406400D03*
X279400Y431800D03*
X279400Y457200D03*
X279400Y482600D03*
D22*
X63500Y355600D03*
X63500Y330200D03*
D25*
X711962Y196850D03*
X711962Y184150D03*
X711962Y171450D03*
X711962Y158750D03*
X761238Y158750D03*
X761238Y171450D03*
X761238Y184150D03*
X761238Y196850D03*
D26*
X722600Y228600D03*
X750600Y228600D03*
D27*
X801370Y171690D03*
X801370Y201690D03*
D22*
X711200Y76200D03*
X685800Y76200D03*
X635000Y76200D03*
X762000Y76200D03*
X736600Y76200D03*
D28*
X419100Y88900D02*
X419100Y181600D01*
D29*
X101600Y508000D02*
X63500Y469900D01*
X101600Y508000D02*
X254000Y508000D01*
X279400Y482600D01*
X381000Y469900D02*
X444500Y469900D01*
X381000Y469900D02*
X381000Y508000D01*
X294640Y482600D02*
X279400Y482600D01*
X294640Y482600D02*
X307340Y469900D01*
X381000Y469900D01*
X419100Y647700D02*
X469900Y647700D01*
X419100Y647700D02*
X387500Y647700D01*
X363700Y623900D01*
D30*
X736600Y177800D03*
X812800Y228600D03*
D28*
X177800Y596900D02*
X63500Y596900D01*
X177800Y596900D02*
X241300Y596900D01*
X279400Y596900D01*
X317500Y596900D01*
X363700Y596900D01*
D29*
X63500Y596900D02*
X63500Y660400D01*
D31*
X801130Y171450D02*
X801370Y171690D01*
X801130Y171450D02*
X761238Y171450D01*
D32*
X863600Y215900D02*
X863600Y533400D01*
X863600Y215900D02*
X819150Y171450D01*
X863600Y533400D02*
X779780Y617220D01*
X801370Y171690D02*
X818910Y171690D01*
X819150Y171450D01*
X779780Y617220D02*
X444500Y617220D01*
X424180Y596900D02*
X363700Y596900D01*
X424180Y596900D02*
X444500Y617220D01*
D28*
X387500Y546100D02*
X363700Y569900D01*
X387500Y546100D02*
X419100Y546100D01*
X444500Y419100D02*
X450850Y419100D01*
X527050Y495300D01*
X476250Y546100D02*
X419100Y546100D01*
X476250Y546100D02*
X527050Y495300D01*
X444500Y368300D02*
X419100Y342900D01*
X444500Y368300D02*
X444500Y419100D01*
D29*
X101600Y381000D02*
X63500Y419100D01*
X101600Y381000D02*
X254000Y381000D01*
X279400Y406400D01*
X381000Y419100D02*
X444500Y419100D01*
X295910Y406400D02*
X279400Y406400D01*
X295910Y406400D02*
X308610Y419100D01*
X381000Y419100D01*
X419100Y546100D02*
X457200Y584200D01*
X469900Y584200D01*
X596900Y88900D02*
X609600Y76200D01*
X596900Y88900D02*
X596900Y127000D01*
X635000Y127000D01*
X165100Y355600D02*
X63500Y355600D01*
X165100Y457200D02*
X203200Y457200D01*
D32*
X711200Y228600D02*
X722600Y228600D01*
D28*
X711200Y228600D02*
X635000Y228600D01*
X419100Y228600D02*
X331724Y228600D01*
X419100Y228600D02*
X508000Y228600D01*
X571500Y228600D01*
X635000Y228600D01*
D29*
X660400Y203200D02*
X660400Y76200D01*
X660400Y203200D02*
X635000Y228600D01*
D31*
X722600Y228600D02*
X727710Y223490D01*
X727710Y203200D01*
X721360Y196850D01*
X711962Y196850D01*
D32*
X750600Y228600D02*
X762000Y228600D01*
D28*
X819150Y285750D01*
X819150Y495300D01*
D31*
X750600Y228600D02*
X745490Y223490D01*
X745490Y203200D01*
X751840Y196850D01*
X761238Y196850D01*
X761238Y76962D02*
X762000Y76200D01*
X761238Y76962D02*
X761238Y158750D01*
X762000Y76200D02*
X736600Y76200D01*
M02*
