M48
;GenerationSoftware,Autodesk,EAGLE,9.6.0*%
;CreationDate,2020-05-15T08:01:09Z*%
FMAT,2
ICI,OFF
METRIC,TZ,000.000
T11C0.350
T10C0.813
T9C0.880
T8C1.000
T7C1.016
T6C1.118
T5C1.200
T4C1.397
T3C1.575
T2C1.850
T1C2.500
%
G90
M71
T1
X41910Y18160
X41910Y22860
T2
X52705Y49530
X81915Y49530
T3
X41910Y34290
X21844Y34290
T4
X6350Y22860
X33172Y22860
T5
X6350Y46990
X6350Y54610
X6350Y41910
X6350Y59690
T6
X11430Y8890
X41910Y8890
T7
X76200Y7620
X63500Y7620
X73660Y7620
X68580Y7620
X71120Y7620
X6350Y33020
X6350Y35560
X66040Y7620
X60960Y7620
X38100Y50800
X29210Y66040
X5080Y8890
X46990Y64770
X6350Y66040
X46990Y58420
T8
X36370Y62390
X36370Y59690
X36370Y56990
T9
X27940Y45720
X20320Y48260
X20320Y45720
X20320Y43180
X20320Y40640
X27940Y40640
X27940Y43180
X27940Y48260
T10
X63500Y22860
X27940Y59690
X49530Y12700
X63500Y12700
X59690Y12700
X41910Y64770
X41910Y54610
X31750Y49530
X31750Y39370
X16510Y45720
X16510Y35560
X57150Y17780
X50800Y22860
X50800Y17780
X24130Y59690
X24130Y54610
X27940Y54610
X31750Y59690
X17780Y59690
X31750Y54610
X57150Y22860
X38100Y41910
X38100Y46990
X17780Y54610
X44450Y41910
X44450Y46990
T11
X73660Y17780
X81280Y22860
M30